<svg width="345" height="288" viewBox="0 0 345 288" fill="none" xmlns="http://www.w3.org/2000/svg">
<g clip-path="url(#clip0)">
<rect width="345" height="288" fill="#F6F5FA"/>
<g filter="url(#filter0_i)">
<path d="M225 0H345V288H225V0Z" fill="white"/>
</g>
<path d="M243.561 36.1231C244.8 36.1231 245.659 35.4987 246.14 34.4651L245.209 33.9022C244.953 34.5981 244.411 35.0894 243.561 35.0894C242.466 35.0894 241.791 34.2911 241.791 32.9708V31.886C241.791 30.5657 242.466 29.7674 243.561 29.7674C244.39 29.7674 244.892 30.2075 245.137 30.883L246.11 30.3508C245.629 29.2864 244.8 28.7337 243.561 28.7337C241.699 28.7337 240.562 30.0335 240.562 32.4284C240.562 34.8233 241.699 36.1231 243.561 36.1231Z" fill="black"/>
<path d="M251.808 36.0002V35.0894H251.245V32.4182C251.245 31.2309 250.478 30.5555 249.106 30.5555C248.072 30.5555 247.448 30.9955 247.1 31.5892L247.765 32.193C248.032 31.7734 248.41 31.4663 249.035 31.4663C249.782 31.4663 250.13 31.845 250.13 32.4898V32.9401H249.168C247.684 32.9401 246.896 33.4825 246.896 34.5367C246.896 35.4987 247.52 36.1231 248.615 36.1231C249.393 36.1231 249.966 35.7751 250.171 35.1098H250.222C250.293 35.6318 250.6 36.0002 251.184 36.0002H251.808ZM248.932 35.2736C248.38 35.2736 248.032 35.028 248.032 34.5572V34.3729C248.032 33.9124 248.41 33.6565 249.188 33.6565H250.13V34.4241C250.13 34.9461 249.618 35.2736 248.932 35.2736Z" fill="black"/>
<path d="M255.318 36.0002V35.0894H254.284V31.5892H255.399V30.6783H254.284V29.225H253.281V30.1563C253.281 30.5248 253.158 30.6783 252.79 30.6783H252.339V31.5892H253.168V34.8437C253.168 35.5704 253.578 36.0002 254.345 36.0002H255.318Z" fill="black"/>
<path d="M258.657 36.1231C259.65 36.1231 260.428 35.6932 260.827 35.0484L260.172 34.4037C259.865 34.8949 259.425 35.2019 258.77 35.2019C257.869 35.2019 257.368 34.6186 257.368 33.7998V33.6258H261.022V33.2062C261.022 31.7324 260.223 30.5555 258.657 30.5555C257.143 30.5555 256.211 31.6403 256.211 33.3393C256.211 35.0382 257.143 36.1231 258.657 36.1231ZM258.657 31.4254C259.394 31.4254 259.845 31.9678 259.845 32.7866V32.8889H257.368V32.8173C257.368 31.9985 257.89 31.4254 258.657 31.4254Z" fill="black"/>
<path d="M266.923 36.5017C266.923 35.5806 266.371 35.028 265.061 35.028H263.751C263.28 35.028 263.004 34.9154 263.004 34.6288C263.004 34.3627 263.249 34.1887 263.515 34.0966C263.71 34.1478 263.955 34.1785 264.211 34.1785C265.562 34.1785 266.34 33.4518 266.34 32.3772C266.34 31.7631 266.074 31.2514 265.593 30.9341V30.7192H266.678V29.8186H265.859C265.388 29.8186 265.163 30.1051 265.163 30.5759V30.7192C264.887 30.6066 264.559 30.5555 264.201 30.5555C262.85 30.5555 262.082 31.2924 262.082 32.3772C262.082 33.0936 262.43 33.6565 263.055 33.9533V33.9943C262.543 34.1171 262.113 34.3832 262.113 34.9358C262.113 35.335 262.328 35.6318 262.717 35.7546V35.8672C262.154 35.99 261.806 36.3073 261.806 36.8906C261.806 37.6992 262.482 38.17 264.221 38.17C266.135 38.17 266.923 37.6071 266.923 36.5017ZM265.879 36.6245C265.879 37.1158 265.45 37.3614 264.58 37.3614H263.884C263.055 37.3614 262.737 37.0646 262.737 36.6348C262.737 36.3789 262.86 36.164 263.106 36.0207H264.907C265.634 36.0207 265.879 36.2561 265.879 36.6245ZM264.211 33.37C263.556 33.37 263.178 33.0732 263.178 32.4693V32.2646C263.178 31.6608 263.556 31.364 264.211 31.364C264.866 31.364 265.245 31.6608 265.245 32.2646V32.4693C265.245 33.0732 264.866 33.37 264.211 33.37Z" fill="black"/>
<path d="M269.781 36.1231C271.265 36.1231 272.227 35.0382 272.227 33.3393C272.227 31.6403 271.265 30.5555 269.781 30.5555C268.297 30.5555 267.335 31.6403 267.335 33.3393C267.335 35.0382 268.297 36.1231 269.781 36.1231ZM269.781 35.2019C269.024 35.2019 268.512 34.7312 268.512 33.7896V32.8889C268.512 31.9474 269.024 31.4766 269.781 31.4766C270.539 31.4766 271.05 31.9474 271.05 32.8889V33.7896C271.05 34.7312 270.539 35.2019 269.781 35.2019Z" fill="black"/>
<path d="M274.586 36.0002V32.6024C274.586 32.0497 275.077 31.7529 275.957 31.7529H276.398V30.6783H276.101C275.251 30.6783 274.791 31.1593 274.637 31.7017H274.586V30.6783H273.47V36.0002H274.586Z" fill="black"/>
<path d="M277.951 29.7265C278.412 29.7265 278.606 29.4808 278.606 29.1431V28.9691C278.606 28.6314 278.412 28.3857 277.951 28.3857C277.491 28.3857 277.286 28.6314 277.286 28.9691V29.1431C277.286 29.4808 277.491 29.7265 277.951 29.7265ZM277.388 36.0002H278.504V30.6783H277.388V36.0002Z" fill="black"/>
<path d="M283.914 36.0002V35.0894H280.946L283.843 31.538V30.6783H279.759V31.5892H282.523L279.667 35.0996V36.0002H283.914Z" fill="black"/>
<path d="M287.062 36.1231C288.055 36.1231 288.833 35.6932 289.232 35.0484L288.577 34.4037C288.27 34.8949 287.83 35.2019 287.175 35.2019C286.274 35.2019 285.773 34.6186 285.773 33.7998V33.6258H289.426V33.2062C289.426 31.7324 288.628 30.5555 287.062 30.5555C285.547 30.5555 284.616 31.6403 284.616 33.3393C284.616 35.0382 285.547 36.1231 287.062 36.1231ZM287.062 31.4254C287.799 31.4254 288.249 31.9678 288.249 32.7866V32.8889H285.773V32.8173C285.773 31.9985 286.295 31.4254 287.062 31.4254Z" fill="black"/>
<path d="M295.526 36.0002V35.0894H294.492V31.5892H295.608V30.6783H294.492V29.225H293.489V30.1563C293.489 30.5248 293.367 30.6783 292.998 30.6783H292.548V31.5892H293.377V34.8437C293.377 35.5704 293.786 36.0002 294.554 36.0002H295.526Z" fill="black"/>
<path d="M296.818 36.0002H297.934V32.4284C297.934 31.8143 298.507 31.5175 299.09 31.5175C299.776 31.5175 300.093 31.9371 300.093 32.7559V36.0002H301.209V32.6228C301.209 31.3128 300.564 30.5555 299.479 30.5555C298.66 30.5555 298.21 30.9853 297.985 31.5584H297.934V28.4267H296.818V36.0002Z" fill="black"/>
<path d="M303.318 29.7265C303.778 29.7265 303.973 29.4808 303.973 29.1431V28.9691C303.973 28.6314 303.778 28.3857 303.318 28.3857C302.857 28.3857 302.653 28.6314 302.653 28.9691V29.1431C302.653 29.4808 302.857 29.7265 303.318 29.7265ZM302.755 36.0002H303.87V30.6783H302.755V36.0002Z" fill="black"/>
<path d="M307.152 36.1231C308.431 36.1231 309.26 35.4373 309.26 34.4139C309.26 33.5542 308.738 33.0425 307.572 32.8685L307.08 32.8071C306.518 32.715 306.262 32.5307 306.262 32.1213C306.262 31.7222 306.548 31.4561 307.162 31.4561C307.735 31.4561 308.186 31.7324 308.462 32.0599L309.148 31.4049C308.667 30.8727 308.124 30.5555 307.162 30.5555C305.996 30.5555 305.187 31.1593 305.187 32.193C305.187 33.1755 305.852 33.6463 306.937 33.7793L307.428 33.8408C307.981 33.9124 308.186 34.1683 308.186 34.506C308.186 34.9563 307.858 35.2224 307.214 35.2224C306.579 35.2224 306.098 34.9358 305.709 34.4651L304.993 35.1201C305.494 35.7444 306.149 36.1231 307.152 36.1231Z" fill="black"/>
<path d="M241.913 51.0002V47.4386C241.913 46.8143 242.487 46.5175 243.07 46.5175C243.756 46.5175 244.073 46.9371 244.073 47.7661V51.0002H245.189V47.6228C245.189 46.3128 244.544 45.5555 243.459 45.5555C242.64 45.5555 242.19 45.9853 241.965 46.5584H241.913V45.6783H240.798V51.0002H241.913Z" fill="black"/>
<path d="M248.823 51.1231C249.815 51.1231 250.593 50.6932 250.992 50.0484L250.337 49.4037C250.03 49.8949 249.59 50.2019 248.935 50.2019C248.035 50.2019 247.533 49.6186 247.533 48.7998V48.6258H251.187V48.2062C251.187 46.7324 250.388 45.5555 248.823 45.5555C247.308 45.5555 246.377 46.6403 246.377 48.3393C246.377 50.0382 247.308 51.1231 248.823 51.1231ZM248.823 46.4254C249.559 46.4254 250.01 46.9678 250.01 47.7866V47.8889H247.533V47.8173C247.533 46.9985 248.055 46.4254 248.823 46.4254Z" fill="black"/>
<path d="M253.293 51.0002H254.521L255.227 48.5747L255.647 47.0804H255.667L256.097 48.5747L256.793 51.0002H258.052L259.485 45.6783H258.451L257.898 47.9094L257.428 49.9256H257.397L256.834 47.9094L256.179 45.6783H255.176L254.531 47.9094L253.979 49.9256H253.948L253.467 47.9094L252.924 45.6783H251.84L253.293 51.0002Z" fill="black"/>
<path d="M262.206 51.1231C263.485 51.1231 264.314 50.4373 264.314 49.4139C264.314 48.5542 263.792 48.0425 262.626 47.8685L262.134 47.8071C261.572 47.715 261.316 47.5307 261.316 47.1213C261.316 46.7222 261.602 46.4561 262.216 46.4561C262.789 46.4561 263.24 46.7324 263.516 47.0599L264.202 46.4049C263.721 45.8727 263.178 45.5555 262.216 45.5555C261.05 45.5555 260.241 46.1593 260.241 47.193C260.241 48.1755 260.906 48.6463 261.991 48.7793L262.482 48.8408C263.035 48.9124 263.24 49.1683 263.24 49.506C263.24 49.9563 262.912 50.2224 262.267 50.2224C261.633 50.2224 261.152 49.9358 260.763 49.4651L260.047 50.1201C260.548 50.7444 261.203 51.1231 262.206 51.1231Z" fill="black"/>
<path d="M272.517 51.0002V50.0894H271.954V47.4181C271.954 46.2309 271.187 45.5555 269.815 45.5555C268.781 45.5555 268.157 45.9955 267.809 46.5892L268.474 47.193C268.741 46.7734 269.119 46.4663 269.743 46.4663C270.491 46.4663 270.839 46.845 270.839 47.4898V47.9401H269.877C268.393 47.9401 267.604 48.4825 267.604 49.5367C267.604 50.4987 268.229 51.1231 269.324 51.1231C270.102 51.1231 270.675 50.7751 270.88 50.1098H270.931C271.002 50.6318 271.309 51.0002 271.893 51.0002H272.517ZM269.641 50.2736C269.088 50.2736 268.741 50.028 268.741 49.5572V49.3729C268.741 48.9124 269.119 48.6565 269.897 48.6565H270.839V49.4241C270.839 49.9461 270.327 50.2736 269.641 50.2736Z" fill="black"/>
<path d="M274.726 51.0002V47.6024C274.726 47.0497 275.217 46.7529 276.097 46.7529H276.537V45.6783H276.241C275.391 45.6783 274.931 46.1593 274.777 46.7017H274.726V45.6783H273.61V51.0002H274.726Z" fill="black"/>
<path d="M280.014 51.0002V50.0894H278.981V46.5892H280.096V45.6783H278.981V44.225H277.978V45.1563C277.978 45.5248 277.855 45.6783 277.486 45.6783H277.036V46.5892H277.865V49.8437C277.865 50.5704 278.274 51.0002 279.042 51.0002H280.014Z" fill="black"/>
<path d="M281.869 44.7265C282.33 44.7265 282.524 44.4808 282.524 44.1431V43.9691C282.524 43.6314 282.33 43.3857 281.869 43.3857C281.409 43.3857 281.204 43.6314 281.204 43.9691V44.1431C281.204 44.4808 281.409 44.7265 281.869 44.7265ZM281.306 51.0002H282.422V45.6783H281.306V51.0002Z" fill="black"/>
<path d="M286.072 51.1231C287.095 51.1231 287.822 50.642 288.17 49.7721L287.321 49.3218C287.095 49.854 286.717 50.2019 286.072 50.2019C285.253 50.2019 284.834 49.639 284.834 48.8203V47.8685C284.834 47.0497 285.253 46.4868 286.072 46.4868C286.676 46.4868 287.055 46.8041 287.208 47.2953L288.129 46.8655C287.812 46.0774 287.136 45.5555 286.072 45.5555C284.537 45.5555 283.657 46.6403 283.657 48.3393C283.657 50.0382 284.537 51.1231 286.072 51.1231Z" fill="black"/>
<path d="M291.085 51.0002V50.0894H290.348V43.4267H289.232V49.8949C289.232 50.5806 289.611 51.0002 290.368 51.0002H291.085Z" fill="black"/>
<path d="M294.238 51.1231C295.231 51.1231 296.009 50.6932 296.408 50.0484L295.753 49.4037C295.446 49.8949 295.006 50.2019 294.351 50.2019C293.45 50.2019 292.949 49.6186 292.949 48.7998V48.6258H296.603V48.2062C296.603 46.7324 295.804 45.5555 294.238 45.5555C292.724 45.5555 291.792 46.6403 291.792 48.3393C291.792 50.0382 292.724 51.1231 294.238 51.1231ZM294.238 46.4254C294.975 46.4254 295.426 46.9678 295.426 47.7866V47.8889H292.949V47.8173C292.949 46.9985 293.471 46.4254 294.238 46.4254Z" fill="black"/>
<path d="M298.343 51.1231C298.845 51.1231 299.09 50.8263 299.09 50.4271V50.2736C299.09 49.8744 298.845 49.5776 298.343 49.5776C297.842 49.5776 297.596 49.8744 297.596 50.2736V50.4271C297.596 50.8263 297.842 51.1231 298.343 51.1231Z" fill="black"/>
<g clip-path="url(#clip1)">
<rect x="240.32" y="68.1411" width="9.59488" height="9.59488" rx="2.23881" fill="#EAE9F1" stroke="#A3A6B8" stroke-width="0.639659"/>
<path d="M257.163 76.9385V73.8886H259.149C260.428 73.8886 261.144 73.1005 261.144 71.8417C261.144 70.5828 260.428 69.7948 259.149 69.7948H256.303V76.9385H257.163ZM257.163 70.5521H259.149C259.824 70.5521 260.223 70.9206 260.223 71.5756V72.1078C260.223 72.7628 259.824 73.1312 259.149 73.1312H257.163V70.5521ZM264.224 77.0613C265.636 77.0613 266.609 75.9764 266.609 74.298C266.609 72.6195 265.636 71.5346 264.224 71.5346C262.812 71.5346 261.839 72.6195 261.839 74.298C261.839 75.9764 262.812 77.0613 264.224 77.0613ZM264.224 76.3346C263.344 76.3346 262.72 75.7922 262.72 74.6766V73.9193C262.72 72.8037 263.344 72.2613 264.224 72.2613C265.104 72.2613 265.729 72.8037 265.729 73.9193V74.6766C265.729 75.7922 265.104 76.3346 264.224 76.3346ZM269.552 76.9385V76.2221H268.774V69.3649H267.955V76.089C267.955 76.5803 268.262 76.9385 268.825 76.9385H269.552ZM271.153 70.4191C271.501 70.4191 271.655 70.2349 271.655 69.9585V69.8255C271.655 69.5491 271.501 69.3649 271.153 69.3649C270.805 69.3649 270.652 69.5491 270.652 69.8255V69.9585C270.652 70.2349 270.805 70.4191 271.153 70.4191ZM270.744 76.9385H271.563V71.6575H270.744V76.9385ZM275.493 76.9385V76.2221H274.418V72.3739H275.574V71.6575H274.418V70.1939H273.681V71.1764C273.681 71.5346 273.568 71.6575 273.221 71.6575H272.729V72.3739H273.599V76.0685C273.599 76.5803 273.906 76.9385 274.469 76.9385H275.493ZM277.3 70.4191C277.648 70.4191 277.801 70.2349 277.801 69.9585V69.8255C277.801 69.5491 277.648 69.3649 277.3 69.3649C276.952 69.3649 276.798 69.5491 276.798 69.8255V69.9585C276.798 70.2349 276.952 70.4191 277.3 70.4191ZM276.89 76.9385H277.709V71.6575H276.89V76.9385ZM281.414 77.0613C282.417 77.0613 283.103 76.57 283.441 75.8127L282.847 75.4135C282.56 76.0174 282.079 76.3346 281.414 76.3346C280.442 76.3346 279.94 75.6694 279.94 74.7483V73.8476C279.94 72.9265 280.442 72.2613 281.414 72.2613C282.059 72.2613 282.509 72.5786 282.704 73.121L283.389 72.773C283.082 72.0464 282.458 71.5346 281.414 71.5346C279.93 71.5346 279.06 72.6093 279.06 74.298C279.06 75.9867 279.93 77.0613 281.414 77.0613ZM286.183 77.0613C287.39 77.0613 288.138 76.437 288.138 75.4135C288.138 74.6152 287.687 74.1035 286.52 73.9295L286.111 73.8681C285.456 73.7658 285.098 73.5611 285.098 73.0494C285.098 72.5479 285.456 72.2306 286.132 72.2306C286.807 72.2306 287.257 72.5479 287.493 72.8754L288.035 72.3841C287.605 71.8519 287.042 71.5346 286.193 71.5346C285.118 71.5346 284.31 72.0464 284.31 73.0903C284.31 74.0728 285.036 74.472 286.009 74.6152L286.428 74.6766C287.124 74.779 287.349 75.0963 287.349 75.5056C287.349 76.0481 286.94 76.3653 286.244 76.3653C285.579 76.3653 285.088 76.0685 284.678 75.5568L284.095 76.0276C284.566 76.6519 285.21 77.0613 286.183 77.0613Z" fill="black"/>
</g>
<g clip-path="url(#clip2)">
<rect x="240.32" y="119.314" width="9.59488" height="9.59488" rx="2.23881" fill="#EAE9F1" stroke="#A3A6B8" stroke-width="0.639659"/>
<path d="M257.163 128.111V124.877H260.264V124.12H257.163V121.725H260.561V120.968H256.303V128.111H257.163ZM262.348 121.592C262.696 121.592 262.849 121.408 262.849 121.131V120.998C262.849 120.722 262.696 120.538 262.348 120.538C262 120.538 261.846 120.722 261.846 120.998V121.131C261.846 121.408 262 121.592 262.348 121.592ZM261.938 128.111H262.757V122.83H261.938V128.111ZM265.316 128.111V124.447C265.316 123.772 265.95 123.444 266.605 123.444C267.393 123.444 267.803 123.925 267.803 124.867V128.111H268.622V124.724C268.622 123.444 267.936 122.707 266.851 122.707C266.063 122.707 265.613 123.096 265.357 123.69H265.316V122.83H264.497V128.111H265.316ZM274.612 128.111V127.395H274.009V124.488C274.009 123.373 273.251 122.707 271.982 122.707C271.03 122.707 270.396 123.178 270.109 123.741L270.601 124.202C270.887 123.721 271.307 123.414 271.941 123.414C272.781 123.414 273.19 123.823 273.19 124.57V125.092H272.146C270.611 125.092 269.894 125.645 269.894 126.638C269.894 127.62 270.549 128.234 271.665 128.234C272.402 128.234 272.965 127.896 273.19 127.252H273.241C273.302 127.743 273.548 128.111 274.152 128.111H274.612ZM271.798 127.538C271.163 127.538 270.754 127.241 270.754 126.719V126.505C270.754 125.993 271.174 125.706 272.105 125.706H273.19V126.576C273.19 127.119 272.607 127.538 271.798 127.538ZM276.6 128.111V124.447C276.6 123.772 277.234 123.444 277.889 123.444C278.677 123.444 279.087 123.925 279.087 124.867V128.111H279.906V124.724C279.906 123.444 279.22 122.707 278.135 122.707C277.347 122.707 276.897 123.096 276.641 123.69H276.6V122.83H275.781V128.111H276.6ZM283.563 128.234C284.566 128.234 285.252 127.743 285.589 126.986L284.996 126.586C284.709 127.19 284.228 127.507 283.563 127.507C282.591 127.507 282.089 126.842 282.089 125.921V125.02C282.089 124.099 282.591 123.434 283.563 123.434C284.208 123.434 284.658 123.751 284.853 124.294L285.538 123.946C285.231 123.219 284.607 122.707 283.563 122.707C282.079 122.707 281.209 123.782 281.209 125.471C281.209 127.16 282.079 128.234 283.563 128.234ZM288.671 128.234C289.664 128.234 290.421 127.743 290.759 127.026L290.175 126.607C289.899 127.19 289.387 127.518 288.722 127.518C287.739 127.518 287.156 126.832 287.156 125.921V125.676H290.953V125.287C290.953 123.792 290.083 122.707 288.671 122.707C287.238 122.707 286.296 123.792 286.296 125.471C286.296 127.149 287.238 128.234 288.671 128.234ZM288.671 123.393C289.51 123.393 290.073 124.018 290.073 124.949V125.061H287.156V124.99C287.156 124.069 287.78 123.393 288.671 123.393Z" fill="black"/>
</g>
<rect x="240.32" y="144.9" width="9.59488" height="9.59488" rx="2.23881" fill="#EAE9F1" stroke="#A3A6B8" stroke-width="0.639659"/>
<path d="M260.981 147.311V146.554H255.577V147.311H257.849V153.697H258.708V147.311H260.981ZM263.394 153.82C264.387 153.82 265.144 153.329 265.482 152.612L264.899 152.193C264.622 152.776 264.111 153.104 263.445 153.104C262.463 153.104 261.88 152.418 261.88 151.507V151.261H265.677V150.873C265.677 149.378 264.807 148.293 263.394 148.293C261.961 148.293 261.02 149.378 261.02 151.057C261.02 152.735 261.961 153.82 263.394 153.82ZM263.394 148.979C264.233 148.979 264.796 149.603 264.796 150.535V150.647H261.88V150.576C261.88 149.655 262.504 148.979 263.394 148.979ZM268.991 153.82C269.994 153.82 270.679 153.329 271.017 152.571L270.424 152.172C270.137 152.776 269.656 153.093 268.991 153.093C268.018 153.093 267.517 152.428 267.517 151.507V150.606C267.517 149.685 268.018 149.02 268.991 149.02C269.636 149.02 270.086 149.337 270.28 149.88L270.966 149.532C270.659 148.805 270.035 148.293 268.991 148.293C267.507 148.293 266.637 149.368 266.637 151.057C266.637 152.745 267.507 153.82 268.991 153.82ZM272.173 153.697H272.992V150.033C272.992 149.358 273.626 149.03 274.281 149.03C275.069 149.03 275.479 149.511 275.479 150.453V153.697H276.298V150.31C276.298 149.03 275.612 148.293 274.527 148.293C273.739 148.293 273.289 148.682 273.033 149.276H272.992V146.124H272.173V153.697ZM278.809 153.697V150.033C278.809 149.358 279.443 149.03 280.098 149.03C280.886 149.03 281.296 149.511 281.296 150.453V153.697H282.114V150.31C282.114 149.03 281.429 148.293 280.344 148.293C279.556 148.293 279.105 148.682 278.85 149.276H278.809V148.416H277.99V153.697H278.809ZM285.803 153.82C287.215 153.82 288.187 152.735 288.187 151.057C288.187 149.378 287.215 148.293 285.803 148.293C284.39 148.293 283.418 149.378 283.418 151.057C283.418 152.735 284.39 153.82 285.803 153.82ZM285.803 153.093C284.922 153.093 284.298 152.551 284.298 151.435V150.678C284.298 149.563 284.922 149.02 285.803 149.02C286.683 149.02 287.307 149.563 287.307 150.678V151.435C287.307 152.551 286.683 153.093 285.803 153.093ZM291.13 153.697V152.981H290.352V146.124H289.534V152.848C289.534 153.339 289.841 153.697 290.404 153.697H291.13ZM294.318 153.82C295.73 153.82 296.703 152.735 296.703 151.057C296.703 149.378 295.73 148.293 294.318 148.293C292.906 148.293 291.933 149.378 291.933 151.057C291.933 152.735 292.906 153.82 294.318 153.82ZM294.318 153.093C293.438 153.093 292.814 152.551 292.814 151.435V150.678C292.814 149.563 293.438 149.02 294.318 149.02C295.198 149.02 295.822 149.563 295.822 150.678V151.435C295.822 152.551 295.198 153.093 294.318 153.093ZM302.501 154.281C302.501 153.411 301.938 152.879 300.628 152.879H299.502C299.021 152.879 298.694 152.797 298.694 152.479C298.694 152.152 299.042 151.978 299.39 151.886C299.543 151.916 299.728 151.937 299.902 151.937C301.109 151.937 301.897 151.19 301.897 150.115C301.897 149.552 301.672 149.081 301.294 148.754V148.416H302.297V147.7H301.508C301.068 147.7 300.894 147.997 300.894 148.406V148.498C300.608 148.365 300.27 148.293 299.891 148.293C298.694 148.293 297.906 149.041 297.906 150.115C297.906 150.852 298.274 151.435 298.899 151.732V151.773C298.366 151.906 297.988 152.162 297.988 152.694C297.988 153.052 298.162 153.288 298.459 153.431V153.544C297.937 153.687 297.619 153.994 297.619 154.567C297.619 155.396 298.295 155.867 299.943 155.867C301.642 155.867 302.501 155.365 302.501 154.281ZM301.734 154.342C301.734 154.915 301.201 155.202 300.291 155.202H299.533C298.704 155.202 298.387 154.823 298.387 154.363C298.387 154.035 298.54 153.8 298.878 153.646H300.639C301.457 153.646 301.734 153.922 301.734 154.342ZM299.902 151.282C299.206 151.282 298.766 150.954 298.766 150.258V149.972C298.766 149.276 299.206 148.948 299.902 148.948C300.598 148.948 301.038 149.276 301.038 149.972V150.258C301.038 150.954 300.598 151.282 299.902 151.282ZM305.482 152.009L305.195 152.868H305.144L304.898 152.009L303.629 148.416H302.81L304.786 153.902L304.386 155.028H303.557V155.744H303.977C304.755 155.744 304.97 155.56 305.205 154.925L307.569 148.416H306.761L305.482 152.009Z" fill="black"/>
<g clip-path="url(#clip3)">
<rect x="240.32" y="170.486" width="9.59488" height="9.59488" rx="2.23881" fill="#EAE9F1" stroke="#A3A6B8" stroke-width="0.639659"/>
<path d="M261.677 179.283L259.179 172.139H258.084L255.587 179.283H256.457L257.173 177.175H260.059L260.776 179.283H261.677ZM259.845 176.418H257.378L258.586 172.938H258.637L259.845 176.418ZM263.597 179.283V175.701C263.597 175.2 264.129 174.821 265.009 174.821H265.49V174.002H265.173C264.313 174.002 263.832 174.473 263.648 174.974H263.597V174.002H262.778V179.283H263.597ZM268.766 179.283V178.567H267.692V174.719H268.848V174.002H267.692V172.539H266.955V173.521C266.955 173.879 266.842 174.002 266.494 174.002H266.003V174.719H266.873V178.413C266.873 178.925 267.18 179.283 267.743 179.283H268.766ZM271.75 179.406C272.958 179.406 273.705 178.782 273.705 177.758C273.705 176.96 273.255 176.448 272.088 176.274L271.679 176.213C271.024 176.11 270.666 175.906 270.666 175.394C270.666 174.893 271.024 174.575 271.699 174.575C272.375 174.575 272.825 174.893 273.06 175.22L273.603 174.729C273.173 174.197 272.61 173.879 271.761 173.879C270.686 173.879 269.877 174.391 269.877 175.435C269.877 176.418 270.604 176.817 271.576 176.96L271.996 177.021C272.692 177.124 272.917 177.441 272.917 177.85C272.917 178.393 272.508 178.71 271.812 178.71C271.147 178.71 270.655 178.413 270.246 177.902L269.663 178.372C270.133 178.997 270.778 179.406 271.75 179.406Z" fill="black"/>
</g>
<g clip-path="url(#clip4)">
<path d="M240 95.9659C240 94.5528 241.146 93.4072 242.559 93.4072H247.676C249.089 93.4072 250.235 94.5528 250.235 95.9659V101.083C250.235 102.496 249.089 103.642 247.676 103.642H242.559C241.146 103.642 240 102.496 240 101.083V95.9659Z" fill="#3890F9"/>
<path d="M247.274 96.4552L244.119 99.6101L242.96 98.4509C242.904 98.3947 242.813 98.3947 242.756 98.4509L242.417 98.7901C242.361 98.8463 242.361 98.9374 242.417 98.9936L244.017 100.594C244.074 100.65 244.165 100.65 244.221 100.594L247.817 96.998C247.873 96.9418 247.873 96.8507 247.817 96.7945L247.478 96.4552C247.421 96.399 247.33 96.399 247.274 96.4552V96.4552Z" fill="white"/>
<path d="M258.309 102.647C259.845 102.647 260.766 101.808 260.766 100.498C260.766 99.4336 260.162 98.8195 258.77 98.5022L258.187 98.3692C257.286 98.1645 256.846 97.8575 256.846 97.182C256.846 96.4144 257.409 96.0152 258.32 96.0152C259.149 96.0152 259.691 96.353 260.08 96.8954L260.725 96.4246C260.193 95.6673 259.435 95.2579 258.361 95.2579C256.958 95.2579 255.996 95.9436 255.996 97.2127C255.996 98.3078 256.713 98.8809 258.013 99.1777L258.596 99.3108C259.537 99.5257 259.916 99.8634 259.916 100.539C259.916 101.358 259.364 101.89 258.34 101.89C257.511 101.89 256.917 101.532 256.416 100.866L255.781 101.399C256.355 102.176 257.163 102.647 258.309 102.647ZM262.168 104.571H262.987V101.665H263.028C263.345 102.32 263.847 102.647 264.573 102.647C265.894 102.647 266.723 101.573 266.723 99.8839C266.723 98.1952 265.894 97.1206 264.573 97.1206C263.847 97.1206 263.304 97.4378 263.028 98.1031H262.987V97.2434H262.168V104.571ZM264.348 101.91C263.601 101.91 262.987 101.521 262.987 100.836V98.8707C262.987 98.2873 263.601 97.8575 264.348 97.8575C265.269 97.8575 265.843 98.492 265.843 99.4336V100.334C265.843 101.276 265.269 101.91 264.348 101.91ZM270.101 102.647C271.513 102.647 272.486 101.562 272.486 99.8839C272.486 98.2054 271.513 97.1206 270.101 97.1206C268.689 97.1206 267.716 98.2054 267.716 99.8839C267.716 101.562 268.689 102.647 270.101 102.647ZM270.101 101.921C269.221 101.921 268.596 101.378 268.596 100.263V99.5052C268.596 98.3897 269.221 97.8472 270.101 97.8472C270.981 97.8472 271.605 98.3897 271.605 99.5052V100.263C271.605 101.378 270.981 101.921 270.101 101.921ZM274.651 102.524V98.9423C274.651 98.4408 275.183 98.0622 276.063 98.0622H276.544V97.2434H276.227C275.367 97.2434 274.886 97.7142 274.702 98.2157H274.651V97.2434H273.832V102.524H274.651ZM279.82 102.524V101.808H278.746V97.9598H279.902V97.2434H278.746V95.7799H278.009V96.7624C278.009 97.1206 277.896 97.2434 277.548 97.2434H277.057V97.9598H277.927V101.654C277.927 102.166 278.234 102.524 278.797 102.524H279.82ZM282.805 102.647C284.012 102.647 284.759 102.023 284.759 100.999C284.759 100.201 284.309 99.6894 283.142 99.5155L282.733 99.4541C282.078 99.3517 281.72 99.147 281.72 98.6353C281.72 98.1338 282.078 97.8165 282.753 97.8165C283.429 97.8165 283.879 98.1338 284.115 98.4613L284.657 97.97C284.227 97.4378 283.664 97.1206 282.815 97.1206C281.74 97.1206 280.932 97.6323 280.932 98.6762C280.932 99.6587 281.658 100.058 282.631 100.201L283.05 100.263C283.746 100.365 283.971 100.682 283.971 101.092C283.971 101.634 283.562 101.951 282.866 101.951C282.201 101.951 281.709 101.654 281.3 101.143L280.717 101.614C281.187 102.238 281.832 102.647 282.805 102.647Z" fill="black"/>
</g>
<g clip-path="url(#clip5)">
<rect x="24" y="24" width="177" height="300" rx="6" fill="white"/>
<path d="M51.3263 75.1439C52.6103 75.1439 53.4143 74.4119 53.6303 73.8239H53.6903L54.3263 74.9999H54.8423V71.5319H55.5383V70.8839H52.0583V71.5319H53.4263V72.6599C53.4263 73.6919 52.6703 74.3279 51.4943 74.3279C50.1623 74.3279 49.3103 73.3559 49.3103 71.7359V69.8879C49.3103 68.2079 50.0783 67.2359 51.7103 67.2359C52.9343 67.2359 53.6063 67.7399 53.6063 68.6039V69.1679H54.6983V66.6239H53.6063V67.3559H53.5463C53.3543 66.9119 52.6823 66.4799 51.4703 66.4799C49.2863 66.4799 47.7383 68.0159 47.7383 70.8119C47.7383 73.5119 49.2023 75.1439 51.3263 75.1439Z" fill="black"/>
<path d="M59.488 74.4359C58.492 74.4359 58.024 73.7519 58.024 72.7199V71.0399C58.024 70.0079 58.492 69.3239 59.488 69.3239C60.484 69.3239 60.952 70.0079 60.952 71.0399V72.7199C60.952 73.7519 60.484 74.4359 59.488 74.4359ZM59.488 75.1439C61.24 75.1439 62.416 73.8959 62.416 71.8799C62.416 69.8639 61.24 68.6159 59.488 68.6159C57.736 68.6159 56.56 69.8639 56.56 71.8799C56.56 73.8959 57.736 75.1439 59.488 75.1439Z" fill="black"/>
<path d="M63.2952 74.9999H66.2712V74.3519H65.4552V65.8799L63.2952 66.2999V66.8279L64.1112 66.9839V74.3519H63.2952V74.9999Z" fill="black"/>
<path d="M69.722 75.1439C70.646 75.1439 71.222 74.6399 71.474 74.0639H71.534V75.1439L73.694 74.7239V74.1959L72.878 74.0399V65.8799L70.718 66.2999V66.8279L71.534 66.9839V69.6959H71.474C71.222 69.1199 70.658 68.6159 69.722 68.6159C68.186 68.6159 67.202 69.8279 67.202 71.8799C67.202 73.9319 68.186 75.1439 69.722 75.1439ZM70.142 74.2799C69.23 74.2799 68.642 73.6079 68.642 72.5159V71.2439C68.642 70.1519 69.23 69.4799 70.142 69.4799C70.862 69.4799 71.534 69.9239 71.534 70.6559V73.1039C71.534 73.8359 70.862 74.2799 70.142 74.2799Z" fill="black"/>
<path d="M77.4877 75.1439C78.9157 75.1439 79.7197 74.2679 80.0197 73.4519L79.5037 73.1399C79.2277 73.7519 78.6757 74.2079 77.7517 74.2079C76.7077 74.2079 76.0237 73.4879 76.0237 72.2519V71.8679H80.1517V71.5439C80.1517 69.7919 79.1077 68.6159 77.4157 68.6159C75.7477 68.6159 74.5717 69.8999 74.5717 71.8799C74.5717 73.8239 75.6397 75.1439 77.4877 75.1439ZM76.0237 71.0759C76.0237 69.9359 76.5277 69.2879 77.4157 69.2879C78.3157 69.2879 78.7597 69.9479 78.7597 71.0999V71.2319H76.0237V71.0759Z" fill="black"/>
<path d="M81.1582 74.9999H84.1102V74.3519H83.3182V70.6199C83.3182 69.8639 83.9902 69.5159 84.6262 69.5159C85.4902 69.5159 85.8742 69.9839 85.8742 71.0159V74.3519H85.0822V74.9999H88.0342V74.3519H87.2182V70.9439C87.2182 69.3959 86.6302 68.6159 85.1182 68.6159C84.1342 68.6159 83.5462 69.1799 83.3422 69.7319H83.2822V68.6159L81.1582 69.0359V69.5639L81.9742 69.7199V74.3519H81.1582V74.9999Z" fill="black"/>
<path d="M94.8605 75.1439C96.6845 75.1439 97.7525 74.0639 97.7525 72.5879C97.7525 71.2199 96.8525 70.4639 95.3165 70.0919L94.7525 69.9719C93.6365 69.6959 93.1805 69.3119 93.1805 68.5199C93.1805 67.7759 93.7085 67.2239 94.8125 67.2239C95.9885 67.2239 96.5285 67.6559 96.5285 68.4719V69.0119H97.6205V66.6239H96.5285V67.2839H96.4685C96.2525 66.8519 95.6645 66.4799 94.7165 66.4799C93.0365 66.4799 91.9805 67.4159 91.9805 68.7959C91.9805 70.2839 92.9405 71.0279 94.5005 71.3879L95.1125 71.5319C96.1325 71.7839 96.5285 72.1679 96.5285 72.9479C96.5285 73.8239 95.9765 74.3999 94.7045 74.3999C93.4925 74.3999 92.9645 73.9079 92.9645 73.0799V72.5399H91.8725V74.9999H92.9645V74.2919H93.0245C93.2525 74.7479 93.8765 75.1439 94.8605 75.1439Z" fill="black"/>
<path d="M100.914 75.0959C101.586 75.0959 102.258 74.9759 102.522 74.8439V74.3159H101.022V69.4559H102.522V68.7599H101.022V67.0919H100.326L99.9541 68.1479C99.8101 68.5439 99.6661 68.7599 99.0661 68.7599H98.8621V69.4559H99.6781V73.8959C99.6781 74.7239 100.014 75.0959 100.914 75.0959Z" fill="black"/>
<path d="M105.166 75.1439C106.27 75.1439 106.714 74.6039 106.942 74.0759H107.002V74.1359C107.002 74.7239 107.338 75.1439 108.07 75.1439C108.466 75.1439 108.85 75.0359 109.066 74.9039V74.3639H108.25V70.6199C108.25 69.3599 107.458 68.6159 105.97 68.6159C104.41 68.6159 103.534 69.3239 103.534 70.0559C103.534 70.5359 103.846 70.8359 104.266 70.8359C104.758 70.8359 105.034 70.5359 105.034 70.0919C105.034 69.7439 104.842 69.5519 104.674 69.4679V69.4199C104.866 69.3119 105.19 69.2519 105.562 69.2519C106.486 69.2519 106.906 69.7799 106.906 70.7519V71.5679H106.042C104.098 71.5679 103.282 72.2039 103.282 73.4159C103.282 74.4839 103.93 75.1439 105.166 75.1439ZM105.694 74.3039C105.058 74.3039 104.662 74.0279 104.662 73.4519V73.2239C104.662 72.5399 105.058 72.1559 106.186 72.1559H106.906V73.2239C106.906 73.9799 106.39 74.3039 105.694 74.3039Z" fill="black"/>
<path d="M111.813 75.0959C112.485 75.0959 113.157 74.9759 113.421 74.8439V74.3159H111.921V69.4559H113.421V68.7599H111.921V67.0919H111.225L110.853 68.1479C110.709 68.5439 110.565 68.7599 109.965 68.7599H109.761V69.4559H110.577V73.8959C110.577 74.7239 110.913 75.0959 111.813 75.0959Z" fill="black"/>
<path d="M117.12 75.1439C118.548 75.1439 119.353 74.2679 119.653 73.4519L119.136 73.1399C118.86 73.7519 118.308 74.2079 117.384 74.2079C116.34 74.2079 115.657 73.4879 115.657 72.2519V71.8679H119.785V71.5439C119.785 69.7919 118.741 68.6159 117.049 68.6159C115.38 68.6159 114.204 69.8999 114.204 71.8799C114.204 73.8239 115.272 75.1439 117.12 75.1439ZM115.657 71.0759C115.657 69.9359 116.161 69.2879 117.049 69.2879C117.948 69.2879 118.393 69.9479 118.393 71.0999V71.2319H115.657V71.0759Z" fill="black"/>
<path d="M125.836 74.9999H127.216L128.98 68.3999H129.04L130.804 74.9999H132.184L134.104 67.2719H134.728V66.6239H132.232V67.2719H133.252L131.8 73.5719H131.74L129.964 66.6239H128.668L126.892 73.5719H126.832L125.38 67.2719H126.4V66.6239H123.292V67.2719H123.916L125.836 74.9999Z" fill="black"/>
<path d="M136.689 75.1439C137.793 75.1439 138.237 74.6039 138.465 74.0759H138.525V74.1359C138.525 74.7239 138.861 75.1439 139.593 75.1439C139.989 75.1439 140.374 75.0359 140.59 74.9039V74.3639H139.773V70.6199C139.773 69.3599 138.981 68.6159 137.493 68.6159C135.933 68.6159 135.058 69.3239 135.058 70.0559C135.058 70.5359 135.369 70.8359 135.789 70.8359C136.281 70.8359 136.558 70.5359 136.558 70.0919C136.558 69.7439 136.366 69.5519 136.198 69.4679V69.4199C136.39 69.3119 136.714 69.2519 137.086 69.2519C138.01 69.2519 138.43 69.7799 138.43 70.7519V71.5679H137.565C135.621 71.5679 134.806 72.2039 134.806 73.4159C134.806 74.4839 135.453 75.1439 136.689 75.1439ZM137.217 74.3039C136.581 74.3039 136.186 74.0279 136.186 73.4519V73.2239C136.186 72.5399 136.582 72.1559 137.71 72.1559H138.43V73.2239C138.43 73.9799 137.913 74.3039 137.217 74.3039Z" fill="black"/>
<path d="M141.486 74.9999H144.702V74.3519H143.646V70.6079C143.646 69.9959 144.282 69.2999 144.882 69.2999C145.002 69.2999 145.062 69.3119 145.11 69.3239V69.3599C144.954 69.3959 144.822 69.5999 144.822 69.8639C144.822 70.2599 145.122 70.5599 145.614 70.5599C146.094 70.5599 146.394 70.2239 146.394 69.6839C146.394 68.9999 145.914 68.6159 145.182 68.6159C144.354 68.6159 143.886 69.1679 143.67 69.7319H143.61V68.6159L141.486 69.0359V69.5639L142.302 69.7199V74.3519H141.486V74.9999Z" fill="black"/>
<path d="M147.053 74.9999H150.269V74.3519H149.213V70.6079C149.213 69.9959 149.849 69.2999 150.449 69.2999C150.569 69.2999 150.629 69.3119 150.677 69.3239V69.3599C150.521 69.3959 150.389 69.5999 150.389 69.8639C150.389 70.2599 150.689 70.5599 151.181 70.5599C151.661 70.5599 151.961 70.2239 151.961 69.6839C151.961 68.9999 151.481 68.6159 150.749 68.6159C149.921 68.6159 149.453 69.1679 149.237 69.7319H149.177V68.6159L147.053 69.0359V69.5639L147.869 69.7199V74.3519H147.053V74.9999Z" fill="black"/>
<path d="M154.107 67.5959C154.623 67.5959 154.923 67.2719 154.923 66.8039V66.7319C154.923 66.2639 154.623 65.9399 154.107 65.9399C153.591 65.9399 153.291 66.2639 153.291 66.7319V66.8039C153.291 67.2719 153.591 67.5959 154.107 67.5959ZM152.619 74.9999H155.595V74.3519H154.779V68.6159L152.619 69.0359V69.5639L153.435 69.7199V74.3519H152.619V74.9999Z" fill="black"/>
<path d="M159.402 74.4359C158.406 74.4359 157.938 73.7519 157.938 72.7199V71.0399C157.938 70.0079 158.406 69.3239 159.402 69.3239C160.398 69.3239 160.866 70.0079 160.866 71.0399V72.7199C160.866 73.7519 160.398 74.4359 159.402 74.4359ZM159.402 75.1439C161.154 75.1439 162.33 73.8959 162.33 71.8799C162.33 69.8639 161.154 68.6159 159.402 68.6159C157.65 68.6159 156.474 69.8639 156.474 71.8799C156.474 73.8959 157.65 75.1439 159.402 75.1439Z" fill="black"/>
<path d="M163.365 74.9999H166.581V74.3519H165.525V70.6079C165.525 69.9959 166.161 69.2999 166.761 69.2999C166.881 69.2999 166.941 69.3119 166.989 69.3239V69.3599C166.833 69.3959 166.701 69.5999 166.701 69.8639C166.701 70.2599 167.001 70.5599 167.493 70.5599C167.973 70.5599 168.273 70.2239 168.273 69.6839C168.273 68.9999 167.793 68.6159 167.061 68.6159C166.233 68.6159 165.765 69.1679 165.549 69.7319H165.489V68.6159L163.365 69.0359V69.5639L164.181 69.7199V74.3519H163.365V74.9999Z" fill="black"/>
<path d="M171.488 75.1439C172.892 75.1439 173.78 74.3879 173.78 73.2359C173.78 72.1079 173.132 71.5799 171.848 71.2919L171.236 71.1479C170.6 70.9919 170.276 70.6799 170.276 70.1639C170.276 69.5999 170.684 69.3239 171.416 69.3239C172.292 69.3239 172.7 69.6359 172.7 70.2719V70.6199H173.612V68.7599H172.7V69.3119H172.652C172.508 68.9279 172.016 68.6159 171.224 68.6159C169.928 68.6159 169.076 69.2879 169.076 70.4519C169.076 71.5319 169.7 72.1319 170.972 72.4319L171.62 72.5879C172.256 72.7439 172.556 73.0439 172.556 73.5239C172.556 74.1479 172.112 74.4359 171.26 74.4359C170.336 74.4359 169.94 74.0159 169.94 73.3559V73.1399H169.028V74.9999H169.94V74.3759H169.988C170.144 74.7599 170.684 75.1439 171.488 75.1439Z" fill="black"/>
<path d="M176.12 70.3919C176.684 70.3919 177.008 70.0079 177.008 69.5399V69.4679C177.008 68.9999 176.684 68.6159 176.12 68.6159C175.556 68.6159 175.232 68.9999 175.232 69.4679V69.5399C175.232 70.0079 175.556 70.3919 176.12 70.3919ZM176.12 75.1439C176.684 75.1439 177.008 74.7599 177.008 74.2919V74.2199C177.008 73.7519 176.684 73.3679 176.12 73.3679C175.556 73.3679 175.232 73.7519 175.232 74.2199V74.2919C175.232 74.7599 175.556 75.1439 176.12 75.1439Z" fill="black"/>
<path d="M61.824 92.9999H62.952L64.344 88.3319H64.404L65.796 92.9999H66.924L68.508 87.4079H69.108V86.7599H66.96V87.4079H67.764L66.672 91.6799H66.612L65.232 86.7599H64.128L62.748 91.6799H62.688L61.596 87.4079H62.4V86.7599H59.64V87.4079H60.24L61.824 92.9999Z" fill="black"/>
<path d="M69.6526 92.9999H72.6046V92.3519H71.8126V88.6199C71.8126 87.8639 72.4846 87.5159 73.1206 87.5159C73.9846 87.5159 74.3686 87.9839 74.3686 89.0159V92.3519H73.5766V92.9999H76.5286V92.3519H75.7126V88.9439C75.7126 87.3959 75.1246 86.6159 73.6126 86.6159C72.6526 86.6159 72.0766 87.1799 71.8726 87.7319H71.8126V83.8799L69.6526 84.2999V84.8279L70.4686 84.9839V92.3519H69.6526V92.9999Z" fill="black"/>
<path d="M80.3178 93.1439C81.7458 93.1439 82.5498 92.2679 82.8498 91.4519L82.3338 91.1399C82.0578 91.7519 81.5058 92.2079 80.5818 92.2079C79.5378 92.2079 78.8538 91.4879 78.8538 90.2519V89.8679H82.9818V89.5439C82.9818 87.7919 81.9378 86.6159 80.2458 86.6159C78.5778 86.6159 77.4018 87.8999 77.4018 89.8799C77.4018 91.8239 78.4698 93.1439 80.3178 93.1439ZM78.8538 89.0759C78.8538 87.9359 79.3578 87.2879 80.2458 87.2879C81.1458 87.2879 81.5898 87.9479 81.5898 89.0999V89.2319H78.8538V89.0759Z" fill="black"/>
<path d="M83.9883 92.9999H86.9403V92.3519H86.1483V88.6199C86.1483 87.8639 86.8203 87.5159 87.4563 87.5159C88.3203 87.5159 88.7043 87.9839 88.7043 89.0159V92.3519H87.9123V92.9999H90.8643V92.3519H90.0483V88.9439C90.0483 87.3959 89.4603 86.6159 87.9483 86.6159C86.9643 86.6159 86.3763 87.1799 86.1723 87.7319H86.1123V86.6159L83.9883 87.0359V87.5639L84.8043 87.7199V92.3519H83.9883V92.9999Z" fill="black"/>
<path d="M96.3826 92.9999H97.5106L98.9026 88.3319H98.9626L100.355 92.9999H101.483L103.067 87.4079H103.667V86.7599H101.519V87.4079H102.323L101.231 91.6799H101.171L99.7906 86.7599H98.6866L97.3066 91.6799H97.2466L96.1546 87.4079H96.9586V86.7599H94.1986V87.4079H94.7986L96.3826 92.9999Z" fill="black"/>
<path d="M105.855 85.5959C106.371 85.5959 106.671 85.2719 106.671 84.8039V84.7319C106.671 84.2639 106.371 83.9399 105.855 83.9399C105.339 83.9399 105.039 84.2639 105.039 84.7319V84.8039C105.039 85.2719 105.339 85.5959 105.855 85.5959ZM104.367 92.9999H107.343V92.3519H106.527V86.6159L104.367 87.0359V87.5639L105.183 87.7199V92.3519H104.367V92.9999Z" fill="black"/>
<path d="M108.09 92.9999H111.066V92.3519H110.25V83.8799L108.09 84.2999V84.8279L108.906 84.9839V92.3519H108.09V92.9999Z" fill="black"/>
<path d="M111.805 92.9999H114.781V92.3519H113.965V83.8799L111.805 84.2999V84.8279L112.621 84.9839V92.3519H111.805V92.9999Z" fill="black"/>
<path d="M121.597 93.1439C123.421 93.1439 124.489 92.0639 124.489 90.5879C124.489 89.2199 123.589 88.4639 122.053 88.0919L121.489 87.9719C120.373 87.6959 119.917 87.3119 119.917 86.5199C119.917 85.7759 120.445 85.2239 121.549 85.2239C122.725 85.2239 123.265 85.6559 123.265 86.4719V87.0119H124.357V84.6239H123.265V85.2839H123.205C122.989 84.8519 122.401 84.4799 121.453 84.4799C119.773 84.4799 118.717 85.4159 118.717 86.7959C118.717 88.2839 119.677 89.0279 121.237 89.3879L121.849 89.5319C122.869 89.7839 123.265 90.1679 123.265 90.9479C123.265 91.8239 122.713 92.3999 121.441 92.3999C120.229 92.3999 119.701 91.9079 119.701 91.0799V90.5399H118.609V92.9999H119.701V92.2919H119.761C119.989 92.7479 120.613 93.1439 121.597 93.1439Z" fill="black"/>
<path d="M127.65 93.0959C128.322 93.0959 128.994 92.9759 129.258 92.8439V92.3159H127.758V87.4559H129.258V86.7599H127.758V85.0919H127.062L126.69 86.1479C126.546 86.5439 126.402 86.7599 125.802 86.7599H125.598V87.4559H126.414V91.8959C126.414 92.7239 126.75 93.0959 127.65 93.0959Z" fill="black"/>
<path d="M132.958 93.1439C134.386 93.1439 135.19 92.2679 135.49 91.4519L134.974 91.1399C134.698 91.7519 134.146 92.2079 133.222 92.2079C132.178 92.2079 131.494 91.4879 131.494 90.2519V89.8679H135.622V89.5439C135.622 87.7919 134.578 86.6159 132.886 86.6159C131.218 86.6159 130.042 87.8999 130.042 89.8799C130.042 91.8239 131.11 93.1439 132.958 93.1439ZM131.494 89.0759C131.494 87.9359 131.998 87.2879 132.886 87.2879C133.786 87.2879 134.23 87.9479 134.23 89.0999V89.2319H131.494V89.0759Z" fill="black"/>
<path d="M136.509 95.3999H139.725V94.7519H138.669V92.0639H138.729C138.981 92.6399 139.545 93.1439 140.481 93.1439C142.017 93.1439 143.001 91.9319 143.001 89.8799C143.001 87.8279 142.017 86.6159 140.481 86.6159C139.557 86.6159 138.981 87.1199 138.729 87.6959H138.669V86.6159L136.509 87.0359V87.5639L137.325 87.7199V94.7519H136.509V95.3999ZM140.061 92.2799C139.341 92.2799 138.669 91.8359 138.669 91.1039V88.6559C138.669 87.9239 139.341 87.4799 140.061 87.4799C140.973 87.4799 141.561 88.1519 141.561 89.2439V90.5159C141.561 91.6079 140.973 92.2799 140.061 92.2799Z" fill="black"/>
<path d="M143.938 92.9999H146.89V92.3519H146.098V88.6199C146.098 87.8639 146.77 87.5159 147.406 87.5159C148.27 87.5159 148.654 87.9839 148.654 89.0159V92.3519H147.862V92.9999H150.814V92.3519H149.998V88.9439C149.998 87.3959 149.41 86.6159 147.898 86.6159C146.938 86.6159 146.362 87.1799 146.158 87.7319H146.098V83.8799L143.938 84.2999V84.8279L144.754 84.9839V92.3519H143.938V92.9999Z" fill="black"/>
<path d="M154.603 93.1439C156.031 93.1439 156.835 92.2679 157.135 91.4519L156.619 91.1399C156.343 91.7519 155.791 92.2079 154.867 92.2079C153.823 92.2079 153.139 91.4879 153.139 90.2519V89.8679H157.267V89.5439C157.267 87.7919 156.223 86.6159 154.531 86.6159C152.863 86.6159 151.687 87.8999 151.687 89.8799C151.687 91.8239 152.755 93.1439 154.603 93.1439ZM153.139 89.0759C153.139 87.9359 153.643 87.2879 154.531 87.2879C155.431 87.2879 155.875 87.9479 155.875 89.0999V89.2319H153.139V89.0759Z" fill="black"/>
<path d="M158.273 92.9999H161.225V92.3519H160.433V88.6199C160.433 87.8639 161.105 87.5159 161.741 87.5159C162.605 87.5159 162.989 87.9839 162.989 89.0159V92.3519H162.197V92.9999H165.149V92.3519H164.333V88.9439C164.333 87.3959 163.745 86.6159 162.233 86.6159C161.249 86.6159 160.661 87.1799 160.457 87.7319H160.397V86.6159L158.273 87.0359V87.5639L159.089 87.7199V92.3519H158.273V92.9999Z" fill="black"/>
<path d="M76.85 111.144C78.494 111.144 79.538 110.052 79.886 108.996L79.322 108.696C78.974 109.608 78.206 110.232 77.126 110.232C75.71 110.232 74.822 109.32 74.822 107.676V105.804C74.822 104.292 75.506 103.236 76.946 103.236C78.026 103.236 78.71 103.776 78.71 104.58V105.168H79.802V102.624H78.71V103.356H78.65C78.434 102.9 77.786 102.48 76.754 102.48C74.774 102.48 73.25 104.016 73.25 106.812C73.25 109.38 74.618 111.144 76.85 111.144Z" fill="black"/>
<path d="M83.753 111.144C84.737 111.144 85.325 110.58 85.529 110.028H85.589V111.144L87.713 110.724V110.196L86.897 110.04V104.616L84.737 105.036V105.564L85.553 105.72V109.14C85.553 109.896 84.881 110.244 84.245 110.244C83.381 110.244 82.997 109.776 82.997 108.744V104.616L80.837 105.036V105.564L81.653 105.72V108.816C81.653 110.364 82.241 111.144 83.753 111.144Z" fill="black"/>
<path d="M88.6113 111H91.8273V110.352H90.7713V106.608C90.7713 105.996 91.4073 105.3 92.0073 105.3C92.1273 105.3 92.1873 105.312 92.2353 105.324V105.36C92.0793 105.396 91.9473 105.6 91.9473 105.864C91.9473 106.26 92.2473 106.56 92.7393 106.56C93.2193 106.56 93.5193 106.224 93.5193 105.684C93.5193 105 93.0393 104.616 92.3073 104.616C91.4793 104.616 91.0113 105.168 90.7953 105.732H90.7353V104.616L88.6113 105.036V105.564L89.4273 105.72V110.352H88.6113V111Z" fill="black"/>
<path d="M94.1777 111H97.3937V110.352H96.3377V106.608C96.3377 105.996 96.9737 105.3 97.5737 105.3C97.6937 105.3 97.7537 105.312 97.8017 105.324V105.36C97.6457 105.396 97.5137 105.6 97.5137 105.864C97.5137 106.26 97.8137 106.56 98.3057 106.56C98.7857 106.56 99.0857 106.224 99.0857 105.684C99.0857 105 98.6057 104.616 97.8737 104.616C97.0457 104.616 96.5777 105.168 96.3617 105.732H96.3017V104.616L94.1777 105.036V105.564L94.9937 105.72V110.352H94.1777V111Z" fill="black"/>
<path d="M101.055 113.544C102.099 113.544 102.651 112.74 102.999 111.864L105.507 105.408H106.107V104.76H103.911V105.408H104.703L103.227 109.572H103.167L101.679 105.408H102.483V104.76H99.6394V105.408H100.239L102.519 111.276L102.327 111.804C102.015 112.608 101.631 113.016 101.211 113.016C101.103 113.016 101.031 113.016 100.959 112.992V112.944C101.079 112.872 101.211 112.668 101.211 112.428C101.211 112.008 100.947 111.708 100.503 111.708C100.023 111.708 99.7474 112.008 99.7474 112.5C99.7474 113.088 100.191 113.544 101.055 113.544Z" fill="black"/>
<path d="M109.494 111H112.71V110.352H111.654V106.608C111.654 105.996 112.29 105.3 112.89 105.3C113.01 105.3 113.07 105.312 113.118 105.324V105.36C112.962 105.396 112.83 105.6 112.83 105.864C112.83 106.26 113.13 106.56 113.622 106.56C114.102 106.56 114.402 106.224 114.402 105.684C114.402 105 113.922 104.616 113.19 104.616C112.362 104.616 111.894 105.168 111.678 105.732H111.618V104.616L109.494 105.036V105.564L110.31 105.72V110.352H109.494V111Z" fill="black"/>
<path d="M117.953 111.144C119.381 111.144 120.185 110.268 120.485 109.452L119.969 109.14C119.693 109.752 119.141 110.208 118.217 110.208C117.173 110.208 116.489 109.488 116.489 108.252V107.868H120.617V107.544C120.617 105.792 119.573 104.616 117.881 104.616C116.213 104.616 115.037 105.9 115.037 107.88C115.037 109.824 116.105 111.144 117.953 111.144ZM116.489 107.076C116.489 105.936 116.993 105.288 117.881 105.288C118.781 105.288 119.225 105.948 119.225 107.1V107.232H116.489V107.076Z" fill="black"/>
<path d="M123.543 111.096C124.215 111.096 124.887 110.976 125.151 110.844V110.316H123.651V105.456H125.151V104.76H123.651V103.092H122.955L122.583 104.148C122.439 104.544 122.295 104.76 121.695 104.76H121.491V105.456H122.307V109.896C122.307 110.724 122.643 111.096 123.543 111.096Z" fill="black"/>
<path d="M128.671 111.144C129.655 111.144 130.243 110.58 130.447 110.028H130.507V111.144L132.631 110.724V110.196L131.815 110.04V104.616L129.655 105.036V105.564L130.471 105.72V109.14C130.471 109.896 129.799 110.244 129.163 110.244C128.299 110.244 127.915 109.776 127.915 108.744V104.616L125.755 105.036V105.564L126.571 105.72V108.816C126.571 110.364 127.159 111.144 128.671 111.144Z" fill="black"/>
<path d="M133.529 111H136.745V110.352H135.689V106.608C135.689 105.996 136.325 105.3 136.925 105.3C137.045 105.3 137.105 105.312 137.153 105.324V105.36C136.997 105.396 136.865 105.6 136.865 105.864C136.865 106.26 137.165 106.56 137.657 106.56C138.137 106.56 138.437 106.224 138.437 105.684C138.437 105 137.957 104.616 137.225 104.616C136.397 104.616 135.929 105.168 135.713 105.732H135.653V104.616L133.529 105.036V105.564L134.345 105.72V110.352H133.529V111Z" fill="black"/>
<path d="M139.096 111H142.048V110.352H141.256V106.62C141.256 105.864 141.928 105.516 142.564 105.516C143.428 105.516 143.812 105.984 143.812 107.016V110.352H143.02V111H145.972V110.352H145.156V106.944C145.156 105.396 144.568 104.616 143.056 104.616C142.072 104.616 141.484 105.18 141.28 105.732H141.22V104.616L139.096 105.036V105.564L139.912 105.72V110.352H139.096V111Z" fill="black"/>
<path d="M148.329 108.408H149.109V107.196C150.693 107.04 151.917 106.2 151.917 104.7C151.917 103.344 150.945 102.48 149.229 102.48C147.801 102.48 146.769 103.2 146.769 104.028C146.769 104.568 147.093 104.928 147.597 104.928C148.125 104.928 148.425 104.556 148.425 104.088C148.425 103.752 148.209 103.5 147.981 103.38V103.344C148.209 103.224 148.521 103.14 148.977 103.14C149.817 103.14 150.405 103.644 150.405 104.58V104.832C150.405 105.9 149.601 106.404 148.329 106.452V108.408ZM148.725 111.144C149.289 111.144 149.613 110.76 149.613 110.292V110.22C149.613 109.752 149.289 109.368 148.725 109.368C148.161 109.368 147.837 109.752 147.837 110.22V110.292C147.837 110.76 148.161 111.144 148.725 111.144Z" fill="black"/>
<path d="M24 24H201V48H24V24Z" fill="#FD9D52"/>
<path d="M34.7353 39.0976C34.5726 39.0976 34.4234 39.0786 34.2877 39.0406C34.1575 39.0081 34.0409 38.9647 33.9378 38.9104C33.8402 38.8507 33.7561 38.7883 33.6855 38.7232C33.6204 38.6527 33.5716 38.5876 33.5391 38.5279H33.5065V38.9999H32.5625V37.3398H33.5065V37.6897C33.5065 37.9827 33.6096 38.1916 33.8157 38.3163C34.0219 38.4357 34.304 38.4954 34.6621 38.4954C35.0364 38.4954 35.3131 38.4194 35.4922 38.2675C35.6766 38.1156 35.7688 37.9176 35.7688 37.6734C35.7688 37.5541 35.7526 37.451 35.72 37.3642C35.6929 37.2774 35.6441 37.2042 35.5735 37.1445C35.503 37.0794 35.4081 37.0251 35.2887 36.9817C35.1694 36.9329 35.0202 36.8895 34.8411 36.8515L34.4749 36.7701C34.1982 36.7159 33.9432 36.6426 33.7099 36.5504C33.4821 36.4528 33.2868 36.328 33.124 36.1761C32.9613 36.0242 32.8338 35.8424 32.7415 35.6308C32.6547 35.4192 32.6113 35.1697 32.6113 34.8821C32.6113 34.638 32.6547 34.4156 32.7415 34.2148C32.8283 34.0087 32.9531 33.8323 33.1159 33.6859C33.2786 33.5394 33.4794 33.4254 33.7181 33.3441C33.9622 33.2627 34.2389 33.222 34.5482 33.222C34.7163 33.222 34.8655 33.241 34.9957 33.279C35.1314 33.3115 35.248 33.3549 35.3457 33.4092C35.4488 33.4634 35.5328 33.5258 35.5979 33.5963C35.6631 33.6614 35.7119 33.7238 35.7444 33.7835H35.777V33.3197H36.721V34.9798H35.777V34.6217C35.777 34.3342 35.6766 34.1307 35.4759 34.0114C35.2751 33.8866 35.0147 33.8242 34.6946 33.8242C34.3257 33.8242 34.0545 33.9029 33.8808 34.0602C33.7127 34.2121 33.6286 34.3966 33.6286 34.6136C33.6286 34.7384 33.6476 34.8442 33.6855 34.931C33.7235 35.0178 33.7832 35.0937 33.8646 35.1588C33.9514 35.2239 34.0626 35.2809 34.1982 35.3297C34.3339 35.3731 34.4993 35.4165 34.6946 35.4599L35.0364 35.525C35.3185 35.5847 35.5708 35.6634 35.7933 35.761C36.0211 35.8533 36.211 35.9726 36.3629 36.1191C36.5202 36.2656 36.6396 36.4392 36.721 36.6399C36.8024 36.8352 36.8431 37.0631 36.8431 37.3235C36.8431 37.5785 36.7942 37.8145 36.6966 38.0315C36.5989 38.2485 36.4579 38.4357 36.2734 38.593C36.0944 38.7504 35.8746 38.8751 35.6142 38.9674C35.3538 39.0542 35.0608 39.0976 34.7353 39.0976Z" fill="white"/>
<path d="M37.591 38.4628H38.1606V33.8568H37.591V33.3197H42.1238V34.8333H41.1798V33.9056H39.479V35.8668H40.5532V35.3786H41.1554V36.941H40.5532V36.4528H39.479V38.4628H40.2521V38.9999H37.591V38.4628Z" fill="white"/>
<path d="M44.6799 38.4628H45.2495V33.8568H44.6799V33.3197H47.3328C47.7235 33.3197 48.0842 33.3848 48.4152 33.515C48.7516 33.6397 49.0418 33.8242 49.2859 34.0683C49.5301 34.3071 49.72 34.6027 49.8556 34.9554C49.9967 35.308 50.0672 35.7095 50.0672 36.1598C50.0672 36.6101 49.9967 37.0116 49.8556 37.3642C49.72 37.7169 49.5301 38.0152 49.2859 38.2594C49.0418 38.4981 48.7516 38.6826 48.4152 38.8128C48.0842 38.9375 47.7235 38.9999 47.3328 38.9999H44.6799V38.4628ZM46.5679 38.414H47.0968C47.3681 38.414 47.5987 38.3869 47.7886 38.3326C47.9839 38.2784 48.1412 38.1943 48.2606 38.0803C48.3854 37.961 48.4749 37.8064 48.5291 37.6165C48.5888 37.4212 48.6186 37.1852 48.6186 36.9085V35.4111C48.6186 35.1344 48.5888 34.9011 48.5291 34.7112C48.4749 34.5159 48.3854 34.3613 48.2606 34.2474C48.1412 34.128 47.9839 34.0412 47.7886 33.987C47.5987 33.9327 47.3681 33.9056 47.0968 33.9056H46.5679V38.414Z" fill="white"/>
<path d="M52.0763 39.0976C51.6152 39.0976 51.2788 38.9918 51.0672 38.7802C50.861 38.5632 50.758 38.2621 50.758 37.8769C50.758 37.036 51.3792 36.6155 52.6215 36.6155H53.1912V36.1517C53.1912 35.8207 53.1288 35.5711 53.004 35.403C52.8792 35.2348 52.6622 35.1507 52.353 35.1507C52.2391 35.1507 52.1414 35.1588 52.06 35.1751C51.9787 35.1914 51.9081 35.2131 51.8484 35.2402V35.2809C51.9027 35.308 51.9542 35.3569 52.0031 35.4274C52.0573 35.4979 52.0844 35.5929 52.0844 35.7122C52.0844 35.875 52.0329 36.0133 51.9298 36.1272C51.8267 36.2357 51.6721 36.29 51.466 36.29C51.3032 36.29 51.1676 36.233 51.0591 36.1191C50.9506 36.0052 50.8963 35.8614 50.8963 35.6878C50.8963 35.5576 50.9343 35.4301 51.0102 35.3053C51.0862 35.1751 51.2001 35.0612 51.352 34.9635C51.5039 34.8659 51.6911 34.7872 51.9135 34.7275C52.1414 34.6678 52.4018 34.638 52.6948 34.638C53.2861 34.638 53.7229 34.7655 54.005 35.0205C54.2871 35.27 54.4282 35.6254 54.4282 36.0866V38.4628H54.9164V38.9267C54.8242 38.9809 54.7049 39.0216 54.5584 39.0488C54.4119 39.0813 54.26 39.0976 54.1026 39.0976C53.8043 39.0976 53.5927 39.0298 53.4679 38.8941C53.3485 38.7531 53.2889 38.5795 53.2889 38.3733V38.357H53.24C53.2021 38.4493 53.1532 38.5388 53.0935 38.6256C53.0393 38.7124 52.9661 38.7911 52.8738 38.8616C52.787 38.9321 52.6785 38.9891 52.5483 39.0325C52.4181 39.0759 52.2608 39.0976 52.0763 39.0976ZM52.5402 38.3652C52.7409 38.3652 52.8982 38.3191 53.0122 38.2268C53.1315 38.1346 53.1912 37.9746 53.1912 37.7467V37.1038H52.7518C52.4913 37.1038 52.296 37.158 52.1658 37.2666C52.041 37.3751 51.9786 37.5297 51.9786 37.7304V37.8606C51.9786 38.0342 52.0302 38.1617 52.1333 38.2431C52.2364 38.3245 52.372 38.3652 52.5402 38.3652Z" fill="white"/>
<path d="M56.5382 34.1741C56.3104 34.1741 56.1313 34.1117 56.0011 33.987C55.8764 33.8622 55.814 33.694 55.814 33.4824V33.4417C55.814 33.2301 55.8764 33.062 56.0011 32.9372C56.1313 32.8124 56.3104 32.75 56.5382 32.75C56.7661 32.75 56.9424 32.8124 57.0672 32.9372C57.1974 33.062 57.2625 33.2301 57.2625 33.4417V33.4824C57.2625 33.694 57.1974 33.8622 57.0672 33.987C56.9424 34.1117 56.7661 34.1741 56.5382 34.1741ZM55.4396 38.4628H55.9279V35.5576L55.4396 35.4518V34.9879L57.1649 34.638V38.4628H57.6531V38.9999H55.4396V38.4628Z" fill="white"/>
<path d="M58.0841 38.4628H58.5724V33.7347L58.0841 33.6289V33.165L59.8094 32.8151V38.4628H60.2976V38.9999H58.0841V38.4628Z" fill="white"/>
<path d="M61.536 40.7252C61.2105 40.7252 60.9582 40.6438 60.7792 40.481C60.6002 40.3237 60.5106 40.1338 60.5106 39.9114C60.5106 39.7161 60.5649 39.5642 60.6734 39.4557C60.7873 39.3471 60.9419 39.2929 61.1373 39.2929C61.3271 39.2929 61.4736 39.3526 61.5767 39.4719C61.6798 39.5913 61.7313 39.7296 61.7313 39.887C61.7313 39.9575 61.7205 40.0226 61.6988 40.0823C61.6771 40.1474 61.6527 40.1989 61.6255 40.2369L61.6418 40.2857C61.6635 40.2911 61.6933 40.2939 61.7313 40.2939C61.8724 40.2939 62.0026 40.2179 62.1219 40.066C62.2413 39.9141 62.3552 39.6971 62.4637 39.415L62.5451 39.2034L60.9989 35.2728H60.6083V34.7357H62.7486V35.2728H62.2928L63.1473 37.7386H63.1962L64.0588 35.2728H63.603V34.7357H65.1004V35.2728H64.7179L63.009 39.4394C62.9493 39.5859 62.8788 39.7351 62.7974 39.887C62.716 40.0443 62.6184 40.1826 62.5044 40.302C62.3905 40.4268 62.2549 40.5271 62.0975 40.6031C61.9402 40.6845 61.753 40.7252 61.536 40.7252Z" fill="white"/>
<path opacity="0.4" d="M165 33C165 32.4477 165.448 32 166 32H192C192.552 32 193 32.4477 193 33V39C193 39.5523 192.552 40 192 40H166C165.448 40 165 39.5523 165 39V33Z" fill="white"/>
<path opacity="0.4" d="M129 33C129 32.4477 129.448 32 130 32H156C156.552 32 157 32.4477 157 33V39C157 39.5523 156.552 40 156 40H130C129.448 40 129 39.5523 129 39V33Z" fill="white"/>
<path opacity="0.4" d="M93 33C93 32.4477 93.4477 32 94 32H120C120.552 32 121 32.4477 121 33V39C121 39.5523 120.552 40 120 40H94C93.4477 40 93 39.5523 93 39V33Z" fill="white"/>
<path d="M36.207 128C36.207 126.895 37.1025 126 38.207 126H184.207C185.312 126 186.207 126.895 186.207 128V134C186.207 135.105 185.312 136 184.207 136H38.207C37.1025 136 36.207 135.105 36.207 134V128Z" fill="#F2F2F2"/>
<path d="M36 236C36 234.895 36.8954 234 38 234H130C131.105 234 132 234.895 132 236V242C132 243.105 131.105 244 130 244H38C36.8954 244 36 243.105 36 242V236Z" fill="#F2F2F2"/>
<path d="M36 164C36 162.895 36.8954 162 38 162H184C185.105 162 186 162.895 186 164V170C186 171.105 185.105 172 184 172H38C36.8954 172 36 171.105 36 170V164Z" fill="#F2F2F2"/>
<path d="M36 272C36 270.895 36.8954 270 38 270H130C131.105 270 132 270.895 132 272V278C132 279.105 131.105 280 130 280H38C36.8954 280 36 279.105 36 278V272Z" fill="#F2F2F2"/>
<path d="M90 200C90 198.895 90.8954 198 92 198H184C185.105 198 186 198.895 186 200V206C186 207.105 185.105 208 184 208H92C90.8954 208 90 207.105 90 206V200Z" fill="#F2F2F2"/>
<path d="M36.207 146C36.207 144.895 37.1025 144 38.207 144H184.207C185.312 144 186.207 144.895 186.207 146V152C186.207 153.105 185.312 154 184.207 154H38.207C37.1025 154 36.207 153.105 36.207 152V146Z" fill="#F2F2F2"/>
<path d="M36 254C36 252.895 36.8954 252 38 252H130C131.105 252 132 252.895 132 254V260C132 261.105 131.105 262 130 262H38C36.8954 262 36 261.105 36 260V254Z" fill="#F2F2F2"/>
<path d="M90 182C90 180.895 90.8954 180 92 180H184C185.105 180 186 180.895 186 182V188C186 189.105 185.105 190 184 190H92C90.8954 190 90 189.105 90 188V182Z" fill="#F2F2F2"/>
<path d="M90 218C90 216.895 90.8954 216 92 216H184C185.105 216 186 216.895 186 218V224C186 225.105 185.105 226 184 226H92C90.8954 226 90 225.105 90 224V218Z" fill="#F2F2F2"/>
<path d="M36 182C36 180.895 36.8954 180 38 180H80C81.1046 180 82 180.895 82 182V224C82 225.105 81.1046 226 80 226H38C36.8954 226 36 225.105 36 224V182Z" fill="#F2F2F2"/>
<path d="M140 236C140 234.895 140.895 234 142 234H184C185.105 234 186 234.895 186 236V278C186 279.105 185.105 280 184 280H142C140.895 280 140 279.105 140 278V236Z" fill="#F2F2F2"/>
</g>
</g>
<defs>
<filter id="filter0_i" x="225" y="0" width="120" height="288" filterUnits="userSpaceOnUse" color-interpolation-filters="sRGB">
<feFlood flood-opacity="0" result="BackgroundImageFix"/>
<feBlend mode="normal" in="SourceGraphic" in2="BackgroundImageFix" result="shape"/>
<feColorMatrix in="SourceAlpha" type="matrix" values="0 0 0 0 0 0 0 0 0 0 0 0 0 0 0 0 0 0 127 0" result="hardAlpha"/>
<feOffset dx="1"/>
<feComposite in2="hardAlpha" operator="arithmetic" k2="-1" k3="1"/>
<feColorMatrix type="matrix" values="0 0 0 0 0 0 0 0 0 0 0 0 0 0 0 0 0 0 0.1 0"/>
<feBlend mode="normal" in2="shape" result="effect1_innerShadow"/>
</filter>
<clipPath id="clip0">
<rect width="345" height="288" fill="white"/>
</clipPath>
<clipPath id="clip1">
<rect width="49.3518" height="16" fill="white" transform="translate(240 64.9385)"/>
</clipPath>
<clipPath id="clip2">
<rect width="52.3518" height="16" fill="white" transform="translate(240 116.111)"/>
</clipPath>
<clipPath id="clip3">
<rect width="34.3518" height="16" fill="white" transform="translate(240 167.283)"/>
</clipPath>
<clipPath id="clip4">
<rect width="45.3518" height="16" fill="white" transform="translate(240 90.5244)"/>
</clipPath>
<clipPath id="clip5">
<rect x="24" y="24" width="177" height="300" rx="6" fill="white"/>
</clipPath>
</defs>
</svg>
