<svg width="86" height="69" viewBox="0 0 86 69" fill="none" xmlns="http://www.w3.org/2000/svg">
<g clip-path="url(#clip0)">
<path d="M56.4518 18.5176C56.0326 16.1562 53.7643 14.2436 51.3886 14.2436H12.6886L10.1623 0.00012207H48.8623C51.2381 0.00012207 53.5063 1.91278 53.9256 4.27422L56.4518 18.5176Z" fill="#BBDEF2"/>
<path d="M58.9789 32.7717C58.5597 30.4102 56.2914 28.4976 53.9157 28.4976H15.2157L12.6894 14.2542H51.3894C53.7652 14.2542 56.0334 16.1668 56.4527 18.5282L58.9789 32.7717Z" fill="#D1AAD7"/>
<path d="M38.9306 23.0483L42.9941 19.6931H37.2321L34.4908 14.2437L33.6846 19.6931H27.9226L33.1793 23.0483L32.3623 28.4978L36.4258 25.1319L41.6718 28.4978L38.9306 23.0483Z" fill="white"/>
<path d="M61.5053 47.0151C61.086 44.6536 58.8178 42.741 56.442 42.741H17.742L15.2158 28.4976H53.9158C56.2915 28.4976 58.5598 30.4102 58.979 32.7717L61.5053 47.0151Z" fill="#7B8FDD"/>
<path d="M56.4522 42.7411H39.2522L41.5312 55.5634C41.112 53.2019 42.703 51.2893 45.068 51.2893H57.968C60.3437 51.2893 61.924 49.3766 61.5047 47.0152C61.0855 44.6537 58.828 42.7411 56.4522 42.7411Z" fill="black"/>
<path d="M13.5599 68.3857H22.2996L10.1629 0.00012207H1.4339L13.5599 68.3857Z" fill="black"/>
<path d="M61.5053 47.0151C61.9245 49.3766 60.3335 51.2892 57.9685 51.2892H45.0685C42.6928 51.2892 41.1125 53.2019 41.5318 55.5633C41.951 57.9248 44.2193 59.8374 46.595 59.8374H85.295L77.039 45.594H61.258L61.5053 47.0151Z" fill="#7B8FDD"/>
<path d="M61.5053 47.0151C61.9245 49.3766 60.3335 51.2892 57.9685 51.2892H45.0685C42.6928 51.2892 41.1125 53.2019 41.5318 55.5633C41.951 57.9248 44.2193 59.8374 46.595 59.8374H68.1595L65.6333 45.594H61.2688L61.5053 47.0151Z" fill="#6B80D2"/>
<path d="M72.8894 38.4671L74.4911 31.3401H58.7316L61.2579 45.5942H77.0174L72.8894 38.4671Z" fill="#D1AAD7"/>
<path d="M63.0961 31.3401H58.7316L61.2579 45.5942H65.6224L63.0961 31.3401Z" fill="#C88BC4"/>
<path d="M74.4908 31.34L77.6943 17.0966H56.1944L58.7314 31.34H74.4908Z" fill="#BBDEF2"/>
<path d="M60.5696 17.0966H56.1944L58.7313 31.34H63.0958L60.5696 17.0966Z" fill="#86BFF2"/>
</g>
<defs>
<clipPath id="clip0">
<rect width="83.85" height="68.3856" fill="white" transform="translate(1.4339 0.00012207)"/>
</clipPath>
</defs>
</svg>
