<svg id="Layer_1" data-name="Layer 1" xmlns="http://www.w3.org/2000/svg" xmlns:xlink="http://www.w3.org/1999/xlink" viewBox="0 0 1162.66 513.03"><defs><style>.cls-1,.cls-10,.cls-11,.cls-12,.cls-13,.cls-14,.cls-15,.cls-16,.cls-2,.cls-3,.cls-4,.cls-5,.cls-6,.cls-7,.cls-8,.cls-9{fill:none;stroke-miterlimit:10;stroke-width:3px;}.cls-1{stroke:url(#linear-gradient);}.cls-2{stroke:url(#linear-gradient-2);}.cls-3{stroke:url(#linear-gradient-3);}.cls-4{stroke:url(#linear-gradient-4);}.cls-5{stroke:url(#linear-gradient-5);}.cls-6{stroke:url(#linear-gradient-6);}.cls-7{stroke:url(#linear-gradient-7);}.cls-8{stroke:url(#linear-gradient-8);}.cls-9{stroke:url(#linear-gradient-9);}.cls-10{stroke:url(#linear-gradient-10);}.cls-11{stroke:url(#linear-gradient-11);}.cls-12{stroke:url(#linear-gradient-12);}.cls-13{stroke:url(#linear-gradient-13);}.cls-14{stroke:url(#linear-gradient-14);}.cls-15{stroke:url(#linear-gradient-15);}.cls-16{stroke:url(#linear-gradient-16);}.cls-17{fill:#4a00e0;}</style><linearGradient id="linear-gradient" x1="127.85" y1="256.52" x2="299.54" y2="256.52" gradientTransform="translate(266.27 209.6) rotate(-15) scale(0.34)" gradientUnits="userSpaceOnUse"><stop offset="0.26" stop-color="#4a00e0"/><stop offset="1" stop-color="#8e2de2"/></linearGradient><linearGradient id="linear-gradient-2" x1="127.85" y1="256.52" x2="299.54" y2="256.52" gradientTransform="translate(255.02 203.13) rotate(-14) scale(0.36)" xlink:href="#linear-gradient"/><linearGradient id="linear-gradient-3" x1="127.85" y1="256.52" x2="299.54" y2="256.52" gradientTransform="translate(243.03 195.97) rotate(-13) scale(0.39)" xlink:href="#linear-gradient"/><linearGradient id="linear-gradient-4" x1="127.85" y1="256.52" x2="299.54" y2="256.52" gradientTransform="translate(230.29 188.04) rotate(-12) scale(0.42)" xlink:href="#linear-gradient"/><linearGradient id="linear-gradient-5" x1="127.85" y1="256.52" x2="299.54" y2="256.52" gradientTransform="matrix(0.44, -0.09, 0.09, 0.44, 216.73, 179.28)" xlink:href="#linear-gradient"/><linearGradient id="linear-gradient-6" x1="127.85" y1="256.52" x2="299.54" y2="256.52" gradientTransform="translate(202.33 169.6) rotate(-10) scale(0.48)" xlink:href="#linear-gradient"/><linearGradient id="linear-gradient-7" x1="127.85" y1="256.52" x2="299.54" y2="256.52" gradientTransform="matrix(0.51, -0.08, 0.08, 0.51, 187.02, 158.93)" xlink:href="#linear-gradient"/><linearGradient id="linear-gradient-8" x1="127.85" y1="256.52" x2="299.54" y2="256.52" gradientTransform="translate(170.76 147.17) rotate(-8) scale(0.56)" xlink:href="#linear-gradient"/><linearGradient id="linear-gradient-9" x1="127.85" y1="256.52" x2="299.54" y2="256.52" gradientTransform="translate(153.5 134.23) rotate(-7) scale(0.6)" xlink:href="#linear-gradient"/><linearGradient id="linear-gradient-10" x1="127.85" y1="256.52" x2="299.54" y2="256.52" gradientTransform="translate(135.19 119.98) rotate(-6) scale(0.65)" xlink:href="#linear-gradient"/><linearGradient id="linear-gradient-11" x1="127.85" y1="256.52" x2="299.54" y2="256.52" gradientTransform="matrix(0.69, -0.06, 0.06, 0.69, 115.77, 104.32)" xlink:href="#linear-gradient"/><linearGradient id="linear-gradient-12" x1="127.85" y1="256.52" x2="299.54" y2="256.52" gradientTransform="translate(95.18 87.12) rotate(-4) scale(0.75)" xlink:href="#linear-gradient"/><linearGradient id="linear-gradient-13" x1="127.85" y1="256.52" x2="299.54" y2="256.52" gradientTransform="translate(73.38 68.25) rotate(-3) scale(0.8)" xlink:href="#linear-gradient"/><linearGradient id="linear-gradient-14" x1="127.85" y1="256.52" x2="299.54" y2="256.52" gradientTransform="matrix(0.86, -0.03, 0.03, 0.86, 50.28, 47.55)" xlink:href="#linear-gradient"/><linearGradient id="linear-gradient-15" x1="127.85" y1="256.52" x2="299.54" y2="256.52" gradientTransform="matrix(0.93, -0.02, 0.02, 0.93, 25.85, 24.85)" xlink:href="#linear-gradient"/><linearGradient id="linear-gradient-16" x1="127.85" y1="256.52" x2="299.54" y2="256.52" gradientTransform="matrix(1, 0, 0, 1, 0, 0)" xlink:href="#linear-gradient"/></defs><title>cypher</title><path class="cls-1" d="M358.16,233.23a28.62,28.62,0,0,0-21.08,6.28,26.31,26.31,0,0,0-8.54,11.91c-2.73,7.85-1.81,17.81,1.32,26.52s8.26,16.3,13.9,22.88c4.65,5.42,9.86,10.38,15.66,12.59a19.1,19.1,0,0,0,16.43-1.3c4.91-2.8,8.85-7.65,11.61-13.47,2-4.31,3.39-10.12,1-15a10.07,10.07,0,0,0-11.56-5.44c-4,1-7.36,4-11.08,5.92s-8.37,2.68-12.17-.46c-3.6-3-5.35-8.5-6.62-13.59-.85-3.41-1.6-7.14-.63-10.16a7,7,0,0,1,7.31-4.81c3.06.16,6.12,1.7,9.13,3.07s6.17,2.61,9.15,2.15a9.14,9.14,0,0,0,6.8-5.77,16.85,16.85,0,0,0,.88-9.27c-.55-3.08-3.09-4.41-5.13-5.8A36.11,36.11,0,0,0,358.16,233.23Z"/><path class="cls-2" d="M353.37,230.26a30.83,30.83,0,0,0-22.79,6.35,28.34,28.34,0,0,0-9.4,12.65c-3.08,8.39-2.28,19.11.91,28.54s8.59,17.67,14.53,24.86c4.89,5.91,10.4,11.35,16.6,13.83a20.47,20.47,0,0,0,17.68-1.1c5.33-2.91,9.66-8.05,12.73-14.26,2.28-4.59,3.84-10.81,1.39-16.09A10.83,10.83,0,0,0,372.69,279c-4.33,1-8,4.16-12,6.16s-9.06,2.72-13.08-.72c-3.81-3.27-5.59-9.24-6.86-14.74-.85-3.68-1.6-7.7-.49-10.93a7.53,7.53,0,0,1,7.95-5c3.29.23,6.55,1.94,9.76,3.47s6.58,2.93,9.79,2.49a9.89,9.89,0,0,0,7.43-6.08,18.27,18.27,0,0,0,1.12-10c-.55-3.32-3.24-4.8-5.42-6.33A38.85,38.85,0,0,0,353.37,230.26Z"/><path class="cls-3" d="M348.26,227a33.15,33.15,0,0,0-24.62,6.4A30.63,30.63,0,0,0,313.3,246.8c-3.47,9-2.81,20.51.45,30.7s8.89,19.17,15.15,27c5.14,6.45,11,12.39,17.58,15.18a22.08,22.08,0,0,0,19-.84c5.78-3,10.53-8.48,14-15.1,2.54-4.89,4.33-11.55,1.8-17.27a11.65,11.65,0,0,0-13.14-6.76c-4.68,1-8.66,4.32-13,6.4s-9.78,2.75-14-1c-4-3.58-5.84-10-7.1-16-.84-4-1.57-8.31-.33-11.76a8.11,8.11,0,0,1,8.64-5.26c3.54.31,7,2.2,10.44,3.91s7,3.27,10.48,2.86,6.4-2.79,8.09-6.4a19.51,19.51,0,0,0,1.39-10.68c-.52-3.58-3.39-5.22-5.7-6.9A41.64,41.64,0,0,0,348.26,227Z"/><path class="cls-4" d="M342.84,223.35a35.71,35.71,0,0,0-26.59,6.43A32.72,32.72,0,0,0,304.88,244c-3.9,9.57-3.41,22-.1,33s9.21,20.78,15.78,29.31c5.41,7,11.56,13.54,18.63,16.66a23.75,23.75,0,0,0,20.48-.55c6.27-3.16,11.48-8.92,15.28-16,2.82-5.21,4.88-12.33,2.26-18.53a12.52,12.52,0,0,0-14-7.52c-5.05,1-9.38,4.48-14.13,6.63s-10.57,2.78-15.08-1.36c-4.28-3.93-6.09-10.9-7.33-17.3-.83-4.29-1.53-9-.13-12.65a8.72,8.72,0,0,1,9.39-5.5c3.79.4,7.49,2.5,11.14,4.4s7.49,3.64,11.21,3.27,7-2.88,8.83-6.72a21.1,21.1,0,0,0,1.69-11.46c-.49-3.86-3.55-5.67-6-7.53A45,45,0,0,0,342.84,223.35Z"/><path class="cls-5" d="M337.07,219.36a38.34,38.34,0,0,0-28.7,6.4,35.31,35.31,0,0,0-12.5,15.1c-4.36,10.21-4.07,23.58-.72,35.48s9.51,22.51,16.42,31.81c5.68,7.66,12.17,14.77,19.71,18.26a25.52,25.52,0,0,0,22-.21c6.8-3.28,12.5-9.38,16.73-16.88,3.12-5.55,5.47-13.17,2.77-19.89a13.46,13.46,0,0,0-14.91-8.34c-5.45,1-10.18,4.65-15.32,6.87s-11.42,2.79-16.19-1.75c-4.52-4.31-6.34-11.83-7.56-18.74-.81-4.63-1.48-9.67.1-13.61a9.38,9.38,0,0,1,10.2-5.73c4.07.5,8,2.83,11.9,4.94s8,4.06,12,3.73,7.52-3,9.61-7.06a22.59,22.59,0,0,0,2-12.29c-.45-4.16-3.71-6.17-6.31-8.21A48.23,48.23,0,0,0,337.07,219.36Z"/><path class="cls-6" d="M331,215a41.21,41.21,0,0,0-31,6.35,38,38,0,0,0-13.72,16c-4.88,10.9-4.82,25.28-1.44,38.14s9.8,24.37,17.05,34.51c6,8.34,12.82,16.1,20.85,20a27.44,27.44,0,0,0,23.69.19c7.37-3.39,13.62-9.84,18.31-17.83,3.46-5.91,6.12-14.06,3.35-21.33a14.49,14.49,0,0,0-15.88-9.25c-5.88,1-11,4.81-16.6,7.1s-12.32,2.78-17.36-2.19c-4.79-4.71-6.6-12.84-7.78-20.29-.79-5-1.41-10.42.36-14.62,2-4.79,6.7-6.59,11.07-6s8.55,3.19,12.7,5.53,8.51,4.52,12.82,4.23,8.14-3,10.47-7.41a24.36,24.36,0,0,0,2.42-13.17c-.41-4.48-3.87-6.7-6.63-8.94A51.86,51.86,0,0,0,331,215Z"/><path class="cls-7" d="M324.45,210.1A44.29,44.29,0,0,0,291,216.35a40.75,40.75,0,0,0-15,16.93c-5.46,11.63-5.66,27.08-2.27,41s10.08,26.39,17.69,37.42c6.26,9.08,13.47,17.56,22,21.89a29.51,29.51,0,0,0,25.47.65c8-3.51,14.83-10.33,20-18.83,3.84-6.29,6.86-15,4-22.86A15.58,15.58,0,0,0,346,282.27c-6.33,1-11.94,5-18,7.32s-13.31,2.76-18.64-2.67c-5.05-5.16-6.85-13.93-8-22-.76-5.39-1.32-11.24.66-15.72,2.25-5.11,7.33-7,12-6.21s9.14,3.59,13.55,6.18,9.06,5,13.71,4.8,8.8-3.12,11.39-7.78a26.15,26.15,0,0,0,2.85-14.11c-.36-4.82-4-7.28-7-9.74A55.81,55.81,0,0,0,324.45,210.1Z"/><path class="cls-8" d="M317.56,204.76a47.71,47.71,0,0,0-36.06,6.09A43.81,43.81,0,0,0,265,228.77c-6.09,12.4-6.6,29-3.21,44s10.34,28.56,18.31,40.56c6.56,9.88,14.16,19.13,23.28,24a31.71,31.71,0,0,0,27.37,1.17c8.65-3.62,16.14-10.82,21.87-19.86,4.24-6.69,7.65-16,4.74-24.51a16.76,16.76,0,0,0-18-11.33c-6.83.9-12.93,5.11-19.46,7.53s-14.35,2.72-20-3.22c-5.34-5.64-7.11-15.11-8.17-23.76-.71-5.8-1.21-12.1,1-16.89,2.52-5.45,8-7.34,13-6.45s9.76,4,14.45,6.9,9.65,5.57,14.65,5.41,9.52-3.19,12.39-8.14A28.1,28.1,0,0,0,350.64,229c-.29-5.19-4.2-7.9-7.3-10.6A60,60,0,0,0,317.56,204.76Z"/><path class="cls-9" d="M310.24,198.89a51.29,51.29,0,0,0-38.88,5.87,47.11,47.11,0,0,0-18.06,19c-6.78,13.22-7.64,31.07-4.28,47.26s10.58,30.9,18.93,43.95c6.87,10.74,14.86,20.82,24.58,26.18a34.12,34.12,0,0,0,29.4,1.77c9.37-3.72,17.55-11.33,23.88-20.94,4.69-7.11,8.53-17.06,5.56-26.26a18,18,0,0,0-19.11-12.52c-7.37.84-14,5.25-21.07,7.73s-15.48,2.65-21.42-3.84c-5.64-6.16-7.36-16.37-8.34-25.7-.65-6.25-1.07-13,1.4-18.13,2.82-5.81,8.75-7.74,14.13-6.7s10.42,4.53,15.41,7.7,10.27,6.16,15.65,6.09,10.3-3.25,13.48-8.52a30.37,30.37,0,0,0,3.86-16.19c-.22-5.59-4.37-8.57-7.65-11.54A64.6,64.6,0,0,0,310.24,198.89Z"/><path class="cls-10" d="M302.49,192.45A55.07,55.07,0,0,0,260.58,198a50.72,50.72,0,0,0-19.78,20c-7.54,14.08-8.79,33.26-5.48,50.73s10.79,33.42,19.52,47.6c7.18,11.68,15.59,22.67,25.94,28.61a36.65,36.65,0,0,0,31.57,2.46c10.15-3.83,19.08-11.85,26.07-22.07,5.17-7.56,9.49-18.17,6.47-28.13a19.36,19.36,0,0,0-20.32-13.81c-7.93.76-15.15,5.38-22.79,7.91s-16.7,2.56-23-4.53c-5.94-6.73-7.6-17.74-8.48-27.78-.58-6.73-.9-14,1.85-19.47,3.13-6.2,9.55-8.16,15.32-6.94s11.11,5.06,16.41,8.57,10.93,6.81,16.71,6.84,11.14-3.3,14.65-8.91a32.54,32.54,0,0,0,4.46-17.34c-.13-6-4.54-9.29-8-12.54C322.93,201,312.88,195.21,302.49,192.45Z"/><path class="cls-11" d="M294.27,185.37a59.33,59.33,0,0,0-45.16,5.21,54.5,54.5,0,0,0-21.64,21.18c-8.37,15-10.08,35.59-6.84,54.43s11,36.14,20.09,51.55c7.5,12.69,16.33,24.67,27.35,31.25a39.46,39.46,0,0,0,33.9,3.24c11-3.94,20.74-12.39,28.44-23.25,5.7-8,10.54-19.36,7.48-30.11a20.83,20.83,0,0,0-21.58-15.24c-8.54.67-16.39,5.5-24.65,8.08s-18,2.44-24.6-5.3c-6.26-7.35-7.84-19.21-8.6-30-.5-7.25-.71-15.1,2.35-20.9,3.49-6.6,10.43-8.59,16.6-7.16s11.85,5.64,17.49,9.51,11.62,7.53,17.84,7.67,12-3.34,15.92-9.3a35,35,0,0,0,5.11-18.56c0-6.46-4.7-10.08-8.37-13.63C316.09,195,305.39,188.53,294.27,185.37Z"/><path class="cls-12" d="M285.58,177.61a63.67,63.67,0,0,0-48.65,4.76,58.53,58.53,0,0,0-23.67,22.36c-9.28,16-11.5,38.07-8.38,58.39s11.12,39.05,20.63,55.8c7.84,13.78,17.1,26.82,28.82,34.1a42.4,42.4,0,0,0,36.39,4.12c11.87-4,22.52-12.93,31-24.46,6.28-8.52,11.7-20.61,8.6-32.23a22.39,22.39,0,0,0-22.91-16.79c-9.19.56-17.73,5.61-26.66,8.23s-19.39,2.28-26.34-6.17c-6.6-8-8.07-20.8-8.68-32.44-.4-7.8-.48-16.25,2.92-22.42,3.87-7,11.37-9,18-7.4s12.64,6.3,18.63,10.56,12.34,8.32,19,8.58c6.54.26,13-3.36,17.29-9.7a37.76,37.76,0,0,0,5.85-19.85c.08-7-4.88-10.93-8.75-14.82C308.85,188.35,297.47,181.22,285.58,177.61Z"/><path class="cls-13" d="M276.37,169.1A68.52,68.52,0,0,0,224,173.3a63.12,63.12,0,0,0-25.87,23.6c-10.27,17-13.08,40.72-10.1,62.62s11.23,42.2,21.14,60.38c8.16,15,17.87,29.16,30.34,37.2a45.59,45.59,0,0,0,39,5.11c12.84-4.1,24.46-13.47,33.8-25.71,6.91-9,13-21.94,9.85-34.5a24.08,24.08,0,0,0-24.31-18.47c-9.9.43-19.17,5.69-28.82,8.34s-20.89,2.1-28.21-7.12c-6.94-8.74-8.28-22.51-8.71-35-.3-8.4-.22-17.48,3.55-24.05,4.3-7.49,12.39-9.51,19.47-7.62s13.47,7,19.83,11.71,13.12,9.17,20.3,9.58,14-3.38,18.77-10.11c3.89-5.54,6.42-13.5,6.66-21.23.22-7.48-5-11.84-9.13-16.1C301.19,181.08,289.09,173.21,276.37,169.1Z"/><path class="cls-14" d="M266.63,159.79a73.63,73.63,0,0,0-56.41,3.53A67.85,67.85,0,0,0,182,188.2c-11.36,18.08-14.82,43.53-12,67.14s11.28,45.57,21.59,65.3c8.49,16.25,18.67,31.69,31.92,40.57a49,49,0,0,0,41.88,6.23c13.88-4.17,26.55-14,36.82-27,7.6-9.59,14.35-23.35,11.24-36.9a25.88,25.88,0,0,0-25.79-20.32c-10.65.27-20.72,5.76-31.14,8.43s-22.5,1.86-30.19-8.19c-7.3-9.53-8.49-24.36-8.72-37.84-.15-9,.1-18.79,4.28-25.79,4.75-8,13.5-10,21.07-7.82s14.35,7.79,21.1,13,13.93,10.1,21.64,10.68c7.55.56,15.16-3.37,20.37-10.51,4.29-5.89,7.16-14.4,7.56-22.71.38-8-5.19-12.82-9.51-17.47C293.09,173.13,280.23,164.43,266.63,159.79Z"/><path class="cls-15" d="M256.34,149.58a79.22,79.22,0,0,0-60.71,2.74,72.83,72.83,0,0,0-30.84,26.23c-12.56,19.22-16.76,46.52-14.2,71.95s11.27,49.2,22,70.61c8.83,17.63,19.48,34.42,33.56,44.22A52.74,52.74,0,0,0,251,372.81c15-4.22,28.81-14.59,40.1-28.35,8.34-10.17,15.85-24.83,12.77-39.46a27.83,27.83,0,0,0-27.35-22.33c-11.45.1-22.38,5.8-33.63,8.48s-24.23,1.57-32.31-9.37C203,271.4,202,255.43,202,240.94c0-9.71.46-20.21,5.08-27.65,5.26-8.48,14.7-10.49,22.8-8s15.28,8.63,22.44,14.32,14.79,11.13,23.07,11.89c8.11.74,16.36-3.33,22.1-10.92,4.72-6.25,8-15.34,8.55-24.27.56-8.62-5.34-13.88-9.9-19C284.53,164.43,270.87,154.84,256.34,149.58Z"/><path class="cls-16" d="M245.46,138.42a85.19,85.19,0,0,0-65.32,1.81,78.34,78.34,0,0,0-33.65,27.61c-13.86,20.43-18.88,49.7-16.61,77.09s11.19,53.11,22.31,76.33c9.15,19.12,20.29,37.37,35.24,48.17a56.67,56.67,0,0,0,48.14,8.88c16.22-4.25,31.25-15.14,43.65-29.72,9.16-10.78,17.51-26.4,14.47-42.19a29.93,29.93,0,0,0-29-24.52c-12.31-.11-24.16,5.82-36.31,8.48s-26.08,1.25-34.56-10.67c-8.05-11.3-8.82-28.49-8.54-44.07.18-10.44.87-21.72,6-29.63,5.82-9,16-11,24.67-8.19s16.26,9.57,23.86,15.82,15.69,12.24,24.58,13.22c8.7.95,17.64-3.28,23.95-11.33,5.2-6.63,8.86-16.34,9.66-25.93.76-9.26-5.48-15-10.29-20.57C275.49,154.91,261,144.34,245.46,138.42Z"/><path class="cls-17" d="M499.21,267.62a36.62,36.62,0,0,1-7.89,13.27,34.87,34.87,0,0,1-12.57,8.52,44,44,0,0,1-16.42,2.93,41.14,41.14,0,0,1-22-5.79,39,39,0,0,1-14.67-16.42q-5.24-10.61-5.24-25.28t5.17-25.28a38.57,38.57,0,0,1,14.6-16.41,41.15,41.15,0,0,1,22-5.8A47.76,47.76,0,0,1,478.61,200a31.05,31.05,0,0,1,11.94,7.68,33.26,33.26,0,0,1,7.4,12.5l-6.84,3.21q-3.23-9.63-10.2-14.59t-18.3-5a33.47,33.47,0,0,0-18.22,5,32.69,32.69,0,0,0-12.23,14.1q-4.32,9.15-4.33,22t4.27,21.93A32.26,32.26,0,0,0,444.18,281a33.2,33.2,0,0,0,18.15,5q11.18,0,19-5.38T492.22,265Z"/><path class="cls-17" d="M572.67,221.11l-33.8,82.68a40.92,40.92,0,0,1-5.44,10.2,17.32,17.32,0,0,1-6.57,5.38,20.54,20.54,0,0,1-8.38,1.6,22.13,22.13,0,0,1-7.61-1.25,16.82,16.82,0,0,1-5.8-3.5l2.24-6a11.45,11.45,0,0,0,5,3.56,17.73,17.73,0,0,0,6,1.05,13,13,0,0,0,8-2.59q3.5-2.58,6.57-10.12l4.61-11.18-7.41-17.31L508,221.11h8L537.34,274l3.49,9.36,3.77-10,20.53-52.24Z"/><path class="cls-17" d="M587.48,320.28V221.11h6.28l.56,19.41-1-1.11A28.5,28.5,0,0,1,599,228.93a25.19,25.19,0,0,1,9.43-6.84A30.43,30.43,0,0,1,648,236.47q4.18,8.1,4.19,19.56T648,275.51A30.29,30.29,0,0,1,636.57,288a30.89,30.89,0,0,1-16.27,4.33,28,28,0,0,1-16.76-5.1,26.44,26.44,0,0,1-9.92-13.75l.84-1.26v48Zm32-34.08q11.88,0,18.79-8.11T645.16,256q0-14-6.84-22.07t-18.58-8.1a23.3,23.3,0,0,0-13.06,3.7A25.46,25.46,0,0,0,597.74,240a36.47,36.47,0,0,0-3.28,16A37.12,37.12,0,0,0,597.67,272a24.87,24.87,0,0,0,8.87,10.54A23.08,23.08,0,0,0,619.46,286.2Z"/><path class="cls-17" d="M672.26,290.94V189h7v46.38a23.78,23.78,0,0,1,9.92-11.53,30,30,0,0,1,15.78-4.12,31.8,31.8,0,0,1,13.83,2.87,21.48,21.48,0,0,1,9.43,8.65q3.42,5.81,3.42,14.32v45.39h-7V247.79q0-11.32-5.66-16.7t-14.74-5.37A25.19,25.19,0,0,0,692,228.79a24.59,24.59,0,0,0-9.22,8.8,26,26,0,0,0-3.56,14v39.38Z"/><path class="cls-17" d="M784.27,292.34A33.87,33.87,0,0,1,767.09,288a30,30,0,0,1-11.8-12.5Q751,267.34,751,256t4.26-19.49a30.48,30.48,0,0,1,11.6-12.5,32,32,0,0,1,16.55-4.33,30,30,0,0,1,16.2,4.19A27.7,27.7,0,0,1,810,235.56a39.07,39.07,0,0,1,3.64,17.25c0,.84,0,1.66-.07,2.45s-.12,1.51-.21,2.16h-58v-6.28h54.89l-3.49,1q-.13-12-6.35-19.14t-17.11-7.12A24.62,24.62,0,0,0,770,229.42a23.78,23.78,0,0,0-8.94,10.33A37.79,37.79,0,0,0,757.88,256a37.08,37.08,0,0,0,3.28,16.2,23.69,23.69,0,0,0,9.22,10.4,28.8,28.8,0,0,0,27.65.07,23.85,23.85,0,0,0,9-9.63l5.59,3.21a27,27,0,0,1-6.71,8.59,31,31,0,0,1-9.63,5.52A35.49,35.49,0,0,1,784.27,292.34Z"/><path class="cls-17" d="M833.58,290.94V221.11h5.86l.84,14.52A24.49,24.49,0,0,1,848.8,224a23.13,23.13,0,0,1,14.11-4.33,20.92,20.92,0,0,1,5,.56,9.54,9.54,0,0,1,3.77,1.82L870,228.23a13.61,13.61,0,0,0-3.35-1.53,19.54,19.54,0,0,0-5.45-.56,17.34,17.34,0,0,0-10.05,3.28,23.84,23.84,0,0,0-7.69,9.08,29.21,29.21,0,0,0-2.93,13.34v39.1Z"/><path class="cls-17" d="M994.62,290.94h-7.4L975.62,262h-44L920,290.94h-7.4l36.88-92.18h8.24Zm-60.48-35.33h39l-19.55-50Z"/><path class="cls-17" d="M1018.78,198.76v92.18h-7V198.76Z"/></svg>
